<svg xmlns="http://www.w3.org/2000/svg" version="1.1" xmlns:xlink="http://www.w3.org/1999/xlink" xmlns:svgjs="http://svgjs.dev/svgjs" width="2000" height="1999" viewBox="0 0 2000 1999"><g transform="matrix(1,0,0,1,-0.431486880466764,-0.4312711370263287)"><svg viewBox="0 0 343 343" data-background-color="#000000" preserveAspectRatio="xMidYMid meet" height="1999" width="2000" xmlns="http://www.w3.org/2000/svg" xmlns:xlink="http://www.w3.org/1999/xlink"><g id="tight-bounds" transform="matrix(1,0,0,1,0.0740000000000407,0.07400000000001228)"><svg viewBox="0 0 342.85155851775386 342.85155851775386" height="342.85155851775386" width="342.85155851775386"><rect width="342.852" height="342.852" fill="url(#67b4d550-c8ea-4158-b5da-23e2dde67b48)" mask="url(#5ae7775f-8827-4a3c-ade0-f2d32fb8f237)" data-fill-palette-color="tertiary"></rect><g><svg></svg></g><g><svg viewBox="0 0 342.85155851775386 342.85155851775386" height="342.85155851775386" width="342.85155851775386"><g><path d="M0 171.426c0-94.676 76.75-171.426 171.426-171.426 94.676 0 171.426 76.75 171.426 171.426 0 94.676-76.75 171.426-171.426 171.426-94.676 0-171.426-76.75-171.426-171.426zM171.426 339.225c92.673 0 167.799-75.126 167.799-167.799 0-92.673-75.126-167.799-167.799-167.799-92.673 0-167.799 75.126-167.799 167.799 0 92.673 75.126 167.799 167.799 167.799z" data-fill-palette-color="tertiary" fill="url(#67b4d550-c8ea-4158-b5da-23e2dde67b48)" stroke="transparent"></path><ellipse rx="164.56874808852186" ry="164.56874808852186" cx="171.42577925887693" cy="171.42577925887693" fill="url(#67b4d550-c8ea-4158-b5da-23e2dde67b48)" stroke="transparent" stroke-width="0" fill-opacity="1" data-fill-palette-color="tertiary"></ellipse></g><g transform="matrix(1,0,0,1,64.84655864529837,79.67045933187731)"><svg viewBox="0 0 213.1584412271571 183.51063985399924" height="183.51063985399924" width="213.1584412271571"><g><svg viewBox="0 0 213.1584412271571 183.51063985399924" height="183.51063985399924" width="213.1584412271571"><g><svg viewBox="0 0 213.1584412271571 183.51063985399924" height="183.51063985399924" width="213.1584412271571"><g transform="matrix(1,0,0,1,0,110.45557245091726)"><svg viewBox="0 0 213.1584412271571 73.05506740308199" height="73.05506740308199" width="213.1584412271571"><g id="textblocktransform"><svg viewBox="0 0 213.1584412271571 73.05506740308199" height="73.05506740308199" width="213.1584412271571" id="textblock"><g><svg viewBox="0 0 213.1584412271571 40.21361468280523" height="40.21361468280523" width="213.1584412271571"><g transform="matrix(1,0,0,1,0,0)"><svg width="213.1584412271571" viewBox="2.33 -33.8 182.45 34.43" height="40.21361468280523" data-palette-color="#000000"><path d="M12.7 0.55L12.7 0.55Q7.45 0.55 4.89-2.29 2.33-5.13 2.33-10.33L2.33-10.33 2.33-14.13Q2.33-19.35 4.9-22.16 7.48-24.98 12.7-24.98L12.7-24.98Q14.25-24.98 15.53-24.69 16.8-24.4 17.81-23.94 18.82-23.48 19.53-22.98L19.53-22.98 19.88-19.45Q18.7-20.35 17.09-20.98 15.48-21.6 13.3-21.6L13.3-21.6Q9.8-21.6 8.09-19.66 6.38-17.73 6.38-14.03L6.38-14.03 6.38-10.43Q6.38-6.8 8.09-4.85 9.8-2.9 13.3-2.9L13.3-2.9Q15.55-2.9 17.19-3.53 18.82-4.15 20.1-5.05L20.1-5.05 19.73-1.48Q18.63-0.73 16.85-0.09 15.08 0.55 12.7 0.55ZM34.7 0.63L34.7 0.63Q29.45 0.63 26.74-2.21 24.02-5.05 24.02-10.38L24.02-10.38 24.02-14.1Q24.02-19.4 26.75-22.23 29.47-25.05 34.7-25.05L34.7-25.05Q39.95-25.05 42.66-22.23 45.37-19.4 45.37-14.1L45.37-14.1 45.37-10.38Q45.37-5.05 42.66-2.21 39.95 0.63 34.7 0.63ZM34.7-2.68L34.7-2.68Q37.95-2.68 39.64-4.6 41.32-6.53 41.32-10.15L41.32-10.15 41.32-14.33Q41.32-17.93 39.64-19.84 37.95-21.75 34.7-21.75L34.7-21.75Q31.47-21.75 29.77-19.84 28.07-17.93 28.07-14.33L28.07-14.33 28.07-10.15Q28.07-6.53 29.77-4.6 31.47-2.68 34.7-2.68ZM59.05 0.53L59.05 0.53Q54.65 0.53 52.35-2.2 50.05-4.93 50.05-10.15L50.05-10.15 50.05-14.18Q50.05-19.43 52.37-22.19 54.7-24.95 59.22-24.95L59.22-24.95Q61.47-24.95 63.12-24.19 64.77-23.43 65.8-22.05 66.82-20.68 67.17-18.8L67.17-18.8 68.5-18.8 67.3-15.08Q67.22-17.23 66.33-18.69 65.45-20.15 63.93-20.9 62.42-21.65 60.47-21.65L60.47-21.65Q57.37-21.65 55.73-19.85 54.1-18.05 54.1-14.55L54.1-14.55 54.1-9.9Q54.1-6.45 55.73-4.65 57.37-2.85 60.47-2.85L60.47-2.85Q62.32-2.85 63.75-3.56 65.17-4.28 66.11-5.54 67.05-6.8 67.4-8.4L67.4-8.4 68.4-5.5 67.2-5.5Q66.85-3.85 65.86-2.48 64.87-1.1 63.21-0.29 61.55 0.53 59.05 0.53ZM71.25 0L67.2 0 67.37-5.9 67.3-7.2 67.3-17.4 67.32-18.25 67.22-25.18 67.22-33.13 71.25-33.13 71.25 0ZM88.09 0.55L88.09 0.55Q82.52 0.55 79.69-2.18 76.87-4.9 76.87-9.98L76.87-9.98 76.87-14.33Q76.87-19.48 79.49-22.26 82.12-25.05 87.17-25.05L87.17-25.05Q90.57-25.05 92.84-23.79 95.12-22.53 96.27-20.2 97.42-17.88 97.42-14.65L97.42-14.65 97.42-13.75Q97.42-12.95 97.36-12.15 97.29-11.35 97.19-10.58L97.19-10.58 93.47-10.58Q93.52-11.78 93.53-12.85 93.54-13.93 93.54-14.83L93.54-14.83Q93.54-17.05 92.83-18.59 92.12-20.13 90.71-20.94 89.29-21.75 87.17-21.75L87.17-21.75Q84.02-21.75 82.44-19.93 80.87-18.1 80.87-14.7L80.87-14.7 80.87-12.38 80.89-11.88 80.89-9.55Q80.89-8.03 81.34-6.8 81.79-5.58 82.76-4.69 83.72-3.8 85.21-3.34 86.69-2.88 88.74-2.88L88.74-2.88Q91.12-2.88 93.17-3.5 95.22-4.13 97.02-5.2L97.02-5.2 96.64-1.7Q95.02-0.68 92.87-0.06 90.72 0.55 88.09 0.55ZM96.34-10.58L78.99-10.58 78.99-13.63 96.34-13.63 96.34-10.58ZM111.02-33.8L111.02-33.8Q112.89-33.8 114.38-33.46 115.87-33.13 117.12-32.63L117.12-32.63 117.52-29.45Q116.29-29.9 115.05-30.16 113.82-30.43 112.27-30.43L112.27-30.43Q110.39-30.43 109.25-29.94 108.12-29.45 107.63-28.56 107.14-27.68 107.14-26.43L107.14-26.43 107.14-26.3Q107.14-25.43 107.37-24.64 107.59-23.85 107.87-23.2L107.87-23.2 105.14-23.1 105.14-23.6Q104.37-24.2 103.78-25.28 103.19-26.35 103.19-27.78L103.19-27.78 103.19-27.9Q103.19-30.58 105.09-32.19 106.99-33.8 111.02-33.8ZM108.04 0L104.02 0 104.02-22.23 108.04-22.23 108.04 0ZM117.04-20.25L99.99-20.25 99.99-23.48 105.57-23.45 107.22-23.48 117.42-23.48 117.04-20.25ZM125.44-14.93L125.44-14.93 124.51-18.05 125.51-18.1Q126.31-21.2 128.26-22.99 130.21-24.78 133.44-24.78L133.44-24.78Q134.24-24.78 134.88-24.65 135.51-24.53 136.01-24.35L136.01-24.35 136.26-20.43Q135.64-20.63 134.88-20.75 134.11-20.88 133.19-20.88L133.19-20.88Q130.44-20.88 128.4-19.35 126.36-17.82 125.44-14.93ZM125.64 0L121.59 0 121.59-24.4 125.54-24.4 125.34-17.2 125.64-16.9 125.64 0ZM150.49 0.55L150.49 0.55Q144.91 0.55 142.09-2.18 139.26-4.9 139.26-9.98L139.26-9.98 139.26-14.33Q139.26-19.48 141.89-22.26 144.51-25.05 149.56-25.05L149.56-25.05Q152.96-25.05 155.24-23.79 157.51-22.53 158.66-20.2 159.81-17.88 159.81-14.65L159.81-14.65 159.81-13.75Q159.81-12.95 159.75-12.15 159.69-11.35 159.59-10.58L159.59-10.58 155.86-10.58Q155.91-11.78 155.92-12.85 155.94-13.93 155.94-14.83L155.94-14.83Q155.94-17.05 155.22-18.59 154.51-20.13 153.1-20.94 151.69-21.75 149.56-21.75L149.56-21.75Q146.41-21.75 144.84-19.93 143.26-18.1 143.26-14.7L143.26-14.7 143.26-12.38 143.29-11.88 143.29-9.55Q143.29-8.03 143.74-6.8 144.19-5.58 145.15-4.69 146.11-3.8 147.6-3.34 149.09-2.88 151.14-2.88L151.14-2.88Q153.51-2.88 155.56-3.5 157.61-4.13 159.41-5.2L159.41-5.2 159.04-1.7Q157.41-0.68 155.26-0.06 153.11 0.55 150.49 0.55ZM158.74-10.58L141.39-10.58 141.39-13.63 158.74-13.63 158.74-10.58ZM175.46 0.55L175.46 0.55Q169.88 0.55 167.06-2.18 164.23-4.9 164.23-9.98L164.23-9.98 164.23-14.33Q164.23-19.48 166.86-22.26 169.48-25.05 174.53-25.05L174.53-25.05Q177.93-25.05 180.21-23.79 182.48-22.53 183.63-20.2 184.78-17.88 184.78-14.65L184.78-14.65 184.78-13.75Q184.78-12.95 184.72-12.15 184.66-11.35 184.56-10.58L184.56-10.58 180.83-10.58Q180.88-11.78 180.9-12.85 180.91-13.93 180.91-14.83L180.91-14.83Q180.91-17.05 180.2-18.59 179.48-20.13 178.07-20.94 176.66-21.75 174.53-21.75L174.53-21.75Q171.38-21.75 169.81-19.93 168.23-18.1 168.23-14.7L168.23-14.7 168.23-12.38 168.26-11.88 168.26-9.55Q168.26-8.03 168.71-6.8 169.16-5.58 170.12-4.69 171.08-3.8 172.57-3.34 174.06-2.88 176.11-2.88L176.11-2.88Q178.48-2.88 180.53-3.5 182.58-4.13 184.38-5.2L184.38-5.2 184.01-1.7Q182.38-0.68 180.23-0.06 178.08 0.55 175.46 0.55ZM183.71-10.58L166.36-10.58 166.36-13.63 183.71-13.63 183.71-10.58Z" opacity="1" transform="matrix(1,0,0,1,0,0)" fill="#000000" class="wordmark-text-0" data-fill-palette-color="quaternary" id="text-0"></path></svg></g></svg></g><g transform="matrix(1,0,0,1,0,49.70708398266316)"><svg viewBox="0 0 213.1584412271571 23.347983420418835" height="23.347983420418835" width="213.1584412271571"><g transform="matrix(1,0,0,1,0,0)"><svg width="213.1584412271571" viewBox="2.64 -34.03 312.90000000000003 34.27" height="23.347983420418835" data-palette-color="#000000"><path d="M18.31-4.15L18.31-4.15 19.48-1.93Q16.5 0.24 12.38 0.24L12.38 0.24Q8.11 0.24 5.37-2.95 2.64-6.15 2.64-12.08L2.64-12.08Q2.64-24.41 12.11-24.41L12.11-24.41Q15.43-24.41 18.53-22.95L18.53-22.95 18.53-16.65 16.04-16.41 16.04-21.29Q14.43-21.92 12.06-21.92L12.06-21.92Q10.25-21.92 9-21.22 7.74-20.51 7.04-19.14 6.35-17.77 6.05-16.05 5.76-14.33 5.76-12.04L5.76-12.04Q5.76-7.37 7.65-4.83 9.55-2.29 12.72-2.29L12.72-2.29Q15.58-2.29 18.31-4.15ZM40.17-2.97Q37.86 0.24 33.1 0.24 28.34 0.24 26.04-2.97 23.73-6.18 23.73-12.08L23.73-12.08Q23.73-18.26 25.99-21.34 28.24-24.41 33.1-24.41 37.96-24.41 40.22-21.34 42.48-18.26 42.48-12.08L42.48-12.08Q42.48-6.18 40.17-2.97ZM35.59-21.37Q34.52-21.85 33.1-21.85 31.69-21.85 30.61-21.37 29.54-20.9 28.83-20.07 28.12-19.24 27.67-17.99 27.22-16.75 27.04-15.31 26.85-13.87 26.85-12.08L26.85-12.08Q26.85-9.79 27.15-8.09 27.44-6.4 28.13-5.05 28.83-3.71 30.08-3.03 31.32-2.34 33.1-2.34 34.89-2.34 36.13-3.03 37.38-3.71 38.07-5.05 38.77-6.4 39.06-8.09 39.35-9.79 39.35-12.08L39.35-12.08Q39.35-13.87 39.17-15.31 38.99-16.75 38.54-17.99 38.08-19.24 37.38-20.07 36.67-20.9 35.59-21.37ZM63.23-22.53L63.23-33.15 66.35-33.15 66.35 0 63.81 0 63.57-1.22Q60.83 0.24 57.66 0.24L57.66 0.24Q55.41 0.24 53.66-0.43 51.9-1.1 50.54-2.53 49.19-3.96 48.47-6.36 47.75-8.76 47.75-12.04L47.75-12.04Q47.75-14.6 48.24-16.69 48.73-18.77 49.57-20.19 50.41-21.61 51.58-22.57 52.75-23.54 54.1-23.97 55.44-24.41 56.93-24.41L56.93-24.41Q58.59-24.41 60.03-24.02 61.47-23.63 63.23-22.53L63.23-22.53ZM63.23-3.34L63.23-3.34 63.23-19.75Q61.23-20.9 59.89-21.37 58.56-21.85 57.32-21.85L57.32-21.85Q54.34-21.85 52.61-19.37 50.87-16.89 50.87-11.99L50.87-11.99Q50.87-2.34 58.1-2.34L58.1-2.34 58.78-2.34Q61.08-2.34 63.23-3.34ZM82.17-21.85L82.17-21.85Q79.09-21.85 77.46-19.71 75.82-17.58 75.53-13.65L75.53-13.65 87.91-13.65 87.91-14.87Q87.91-18.07 86.36-19.96 84.81-21.85 82.17-21.85ZM82.59-2.34L82.59-2.34Q86.35-2.34 89.42-4.3L89.42-4.3 90.37-1.83Q88.71-0.81 86.66-0.28 84.61 0.24 82.76 0.24L82.76 0.24Q77.82 0.24 75.11-2.73 72.4-5.71 72.4-12.11L72.4-12.11Q72.4-18.24 75.04-21.33 77.68-24.41 82.15-24.41L82.15-24.41Q86.17-24.41 88.49-21.78 90.81-19.14 90.81-14.75L90.81-14.75Q90.81-13.75 90.62-11.45L90.62-11.45 75.53-11.45Q75.55-9.28 75.97-7.63 76.38-5.98 77.02-4.99 77.65-4 78.59-3.39 79.53-2.78 80.49-2.56 81.44-2.34 82.59-2.34ZM119.15 0L116.03 0 116.03-21.8 111.34-21.8 111.34-24.05 116.03-24.05Q116.03-26.81 116.28-28.55 116.54-30.3 117.24-31.57 117.93-32.84 119.16-33.4 120.4-33.96 122.35-34.03L122.35-34.03Q125.01-34.03 126.87-33.4L126.87-33.4 126.48-30.96Q125.96-31.1 124.82-31.29 123.67-31.47 123.03-31.47L123.03-31.47Q121.89-31.47 121.22-31.23 120.54-30.98 120.04-30.19 119.54-29.39 119.35-27.94 119.15-26.49 119.15-24.05L119.15-24.05 124.62-24.05 124.62-21.8 119.15-21.8 119.15 0ZM133.11-24.05L133.24-21.95Q134.68-22.92 136.89-23.63 139.1-24.34 140.95-24.41L140.95-24.41 140.95-21.8Q138.83-21.8 136.64-21.15 134.46-20.51 133.26-19.63L133.26-19.63 133.26 0 130.14 0 130.14-24.05 133.11-24.05ZM154.87-21.85L154.87-21.85Q151.79-21.85 150.15-19.71 148.52-17.58 148.22-13.65L148.22-13.65 160.6-13.65 160.6-14.87Q160.6-18.07 159.05-19.96 157.5-21.85 154.87-21.85ZM155.28-2.34L155.28-2.34Q159.04-2.34 162.12-4.3L162.12-4.3 163.07-1.83Q161.41-0.81 159.36-0.28 157.31 0.24 155.45 0.24L155.45 0.24Q150.52 0.24 147.81-2.73 145.1-5.71 145.1-12.11L145.1-12.11Q145.1-18.24 147.74-21.33 150.37-24.41 154.84-24.41L154.84-24.41Q158.87-24.41 161.19-21.78 163.51-19.14 163.51-14.75L163.51-14.75Q163.51-13.75 163.31-11.45L163.31-11.45 148.22-11.45Q148.25-9.28 148.66-7.63 149.08-5.98 149.71-4.99 150.35-4 151.29-3.39 152.23-2.78 153.18-2.56 154.13-2.34 155.28-2.34ZM178.4-21.85L178.4-21.85Q175.32-21.85 173.69-19.71 172.05-17.58 171.76-13.65L171.76-13.65 184.14-13.65 184.14-14.87Q184.14-18.07 182.58-19.96 181.03-21.85 178.4-21.85ZM178.81-2.34L178.81-2.34Q182.57-2.34 185.65-4.3L185.65-4.3 186.6-1.83Q184.94-0.81 182.89-0.28 180.84 0.24 178.98 0.24L178.98 0.24Q174.05 0.24 171.34-2.73 168.63-5.71 168.63-12.11L168.63-12.11Q168.63-18.24 171.27-21.33 173.91-24.41 178.37-24.41L178.37-24.41Q182.4-24.41 184.72-21.78 187.04-19.14 187.04-14.75L187.04-14.75Q187.04-13.75 186.85-11.45L186.85-11.45 171.76-11.45Q171.78-9.28 172.2-7.63 172.61-5.98 173.25-4.99 173.88-4 174.82-3.39 175.76-2.78 176.71-2.56 177.67-2.34 178.81-2.34ZM220.65-18.63L223.53-18.63 228.76-2.76 233.1-24.05 236.16-24.05 230.69 0 227.27 0 222.09-15.31 216.94 0 213.48 0 207.64-24.05 210.69-24.05 215.36-2.76 220.65-18.63ZM256.82-2.97Q254.51 0.24 249.75 0.24 244.99 0.24 242.68-2.97 240.38-6.18 240.38-12.08L240.38-12.08Q240.38-18.26 242.64-21.34 244.89-24.41 249.75-24.41 254.61-24.41 256.87-21.34 259.13-18.26 259.13-12.08L259.13-12.08Q259.13-6.18 256.82-2.97ZM252.24-21.37Q251.17-21.85 249.75-21.85 248.34-21.85 247.26-21.37 246.19-20.9 245.48-20.07 244.77-19.24 244.32-17.99 243.87-16.75 243.69-15.31 243.5-13.87 243.5-12.08L243.5-12.08Q243.5-9.79 243.8-8.09 244.09-6.4 244.78-5.05 245.48-3.71 246.73-3.03 247.97-2.34 249.75-2.34 251.54-2.34 252.78-3.03 254.03-3.71 254.72-5.05 255.42-6.4 255.71-8.09 256-9.79 256-12.08L256-12.08Q256-13.87 255.82-15.31 255.64-16.75 255.18-17.99 254.73-19.24 254.03-20.07 253.32-20.9 252.24-21.37ZM268.3-24.05L268.43-21.95Q269.87-22.92 272.08-23.63 274.29-24.34 276.14-24.41L276.14-24.41 276.14-21.8Q274.02-21.8 271.83-21.15 269.65-20.51 268.45-19.63L268.45-19.63 268.45 0 265.33 0 265.33-24.05 268.3-24.05ZM279.41-30.93L279.41-33.15 287.93-33.15 287.93-2.2 293.08-2.2 293.08 0 279.36 0 279.36-2.2 284.81-2.2 284.81-30.93 279.41-30.93ZM312.42-22.53L312.42-33.15 315.54-33.15 315.54 0 313 0 312.76-1.22Q310.02 0.24 306.85 0.24L306.85 0.24Q304.6 0.24 302.85-0.43 301.09-1.1 299.73-2.53 298.38-3.96 297.66-6.36 296.94-8.76 296.94-12.04L296.94-12.04Q296.94-14.6 297.43-16.69 297.91-18.77 298.76-20.19 299.6-21.61 300.77-22.57 301.94-23.54 303.29-23.97 304.63-24.41 306.12-24.41L306.12-24.41Q307.78-24.41 309.22-24.02 310.66-23.63 312.42-22.53L312.42-22.53ZM312.42-3.34L312.42-3.34 312.42-19.75Q310.41-20.9 309.08-21.37 307.75-21.85 306.51-21.85L306.51-21.85Q303.53-21.85 301.8-19.37 300.06-16.89 300.06-11.99L300.06-11.99Q300.06-2.34 307.29-2.34L307.29-2.34 307.97-2.34Q310.27-2.34 312.42-3.34Z" opacity="1" transform="matrix(1,0,0,1,0,0)" fill="#000000" class="slogan-text-1" data-fill-palette-color="quaternary" id="text-1"></path></svg></g></svg></g></svg></g></svg></g><g transform="matrix(1,0,0,1,55.22306531721871,0)"><svg viewBox="0 0 102.71231059271969 100.96210315105932" height="100.96210315105932" width="102.71231059271969"><g><svg xmlns="http://www.w3.org/2000/svg" xml:space="preserve" viewBox="-345.9993836358223 257.9479943277313 99.75176572719312 98.0520056722687" x="0" y="0" height="100.96210315105932" width="102.71231059271969" class="icon-icon-0" data-fill-palette-color="quaternary" id="icon-0"><path d="M-246.455 327.152l-16.86-64.454s-1.243-4.756-6.002-4.75l-72.96 0.08s-4.759 0.004-3.515 4.761l15.835 60.538c7.148-15.684 15.203-33.301 15.795-34.599l0.423-0.924 21.84-0.021-1.048 2.253c-5.985 12.87-13.768 29.775-19.236 41.944l62.212-0.067c0.001-0.001 4.76-0.007 3.516-4.761" fill="#000000" data-fill-palette-color="quaternary"></path><path d="M-296.864 290.954l-14.839 0.015c-9.094 19.892-25.758 56.396-26.425 58.074-1.594 4.007 0.346 6.235 1.171 6.957h56.176l-1.875-4.804h-35.137q-0.067 0.004-0.184 0.005c-1.988 0-3.998-1.204-4.006-3.894-0.002-0.629-0.004-1.579 13.149-30.369a5465 5465 0 0 1 11.97-25.984" fill="#000000" data-fill-palette-color="quaternary"></path></svg></g></svg></g><g></g></svg></g></svg></g></svg></g></svg></g><defs></defs><mask id="5ae7775f-8827-4a3c-ade0-f2d32fb8f237"><g id="SvgjsG1096"><svg viewBox="0 0 342.85155851775386 342.85155851775386" height="342.85155851775386" width="342.85155851775386"><g><svg></svg></g><g><svg viewBox="0 0 342.85155851775386 342.85155851775386" height="342.85155851775386" width="342.85155851775386"><g><path d="M0 171.426c0-94.676 76.75-171.426 171.426-171.426 94.676 0 171.426 76.75 171.426 171.426 0 94.676-76.75 171.426-171.426 171.426-94.676 0-171.426-76.75-171.426-171.426zM171.426 339.225c92.673 0 167.799-75.126 167.799-167.799 0-92.673-75.126-167.799-167.799-167.799-92.673 0-167.799 75.126-167.799 167.799 0 92.673 75.126 167.799 167.799 167.799z" fill="white" stroke="transparent"></path><ellipse rx="164.56874808852186" ry="164.56874808852186" cx="171.42577925887693" cy="171.42577925887693" fill="white" stroke="transparent" stroke-width="0" fill-opacity="1"></ellipse></g><g transform="matrix(1,0,0,1,64.84655864529837,79.67045933187731)"><svg viewBox="0 0 213.1584412271571 183.51063985399924" height="183.51063985399924" width="213.1584412271571"><g><svg viewBox="0 0 213.1584412271571 183.51063985399924" height="183.51063985399924" width="213.1584412271571"><g><svg viewBox="0 0 213.1584412271571 183.51063985399924" height="183.51063985399924" width="213.1584412271571"><g transform="matrix(1,0,0,1,0,110.45557245091726)"><svg viewBox="0 0 213.1584412271571 73.05506740308199" height="73.05506740308199" width="213.1584412271571"><g id="SvgjsG1095"><svg viewBox="0 0 213.1584412271571 73.05506740308199" height="73.05506740308199" width="213.1584412271571" id="SvgjsSvg1094"><g><svg viewBox="0 0 213.1584412271571 40.21361468280523" height="40.21361468280523" width="213.1584412271571"><g transform="matrix(1,0,0,1,0,0)"><svg width="213.1584412271571" viewBox="2.33 -33.8 182.45 34.43" height="40.21361468280523" data-palette-color="#000000"><path d="M12.7 0.55L12.7 0.55Q7.45 0.55 4.89-2.29 2.33-5.13 2.33-10.33L2.33-10.33 2.33-14.13Q2.33-19.35 4.9-22.16 7.48-24.98 12.7-24.98L12.7-24.98Q14.25-24.98 15.53-24.69 16.8-24.4 17.81-23.94 18.82-23.48 19.53-22.98L19.53-22.98 19.88-19.45Q18.7-20.35 17.09-20.98 15.48-21.6 13.3-21.6L13.3-21.6Q9.8-21.6 8.09-19.66 6.38-17.73 6.38-14.03L6.38-14.03 6.38-10.43Q6.38-6.8 8.09-4.85 9.8-2.9 13.3-2.9L13.3-2.9Q15.55-2.9 17.19-3.53 18.82-4.15 20.1-5.05L20.1-5.05 19.73-1.48Q18.63-0.73 16.85-0.09 15.08 0.55 12.7 0.55ZM34.7 0.63L34.7 0.63Q29.45 0.63 26.74-2.21 24.02-5.05 24.02-10.38L24.02-10.38 24.02-14.1Q24.02-19.4 26.75-22.23 29.47-25.05 34.7-25.05L34.7-25.05Q39.95-25.05 42.66-22.23 45.37-19.4 45.37-14.1L45.37-14.1 45.37-10.38Q45.37-5.05 42.66-2.21 39.95 0.63 34.7 0.63ZM34.7-2.68L34.7-2.68Q37.95-2.68 39.64-4.6 41.32-6.53 41.32-10.15L41.32-10.15 41.32-14.33Q41.32-17.93 39.64-19.84 37.95-21.75 34.7-21.75L34.7-21.75Q31.47-21.75 29.77-19.84 28.07-17.93 28.07-14.33L28.07-14.33 28.07-10.15Q28.07-6.53 29.77-4.6 31.47-2.68 34.7-2.68ZM59.05 0.53L59.05 0.53Q54.65 0.53 52.35-2.2 50.05-4.93 50.05-10.15L50.05-10.15 50.05-14.18Q50.05-19.43 52.37-22.19 54.7-24.95 59.22-24.95L59.22-24.95Q61.47-24.95 63.12-24.19 64.77-23.43 65.8-22.05 66.82-20.68 67.17-18.8L67.17-18.8 68.5-18.8 67.3-15.08Q67.22-17.23 66.33-18.69 65.45-20.15 63.93-20.9 62.42-21.65 60.47-21.65L60.47-21.65Q57.37-21.65 55.73-19.85 54.1-18.05 54.1-14.55L54.1-14.55 54.1-9.9Q54.1-6.45 55.73-4.65 57.37-2.85 60.47-2.85L60.47-2.85Q62.32-2.85 63.75-3.56 65.17-4.28 66.11-5.54 67.05-6.8 67.4-8.4L67.4-8.4 68.4-5.5 67.2-5.5Q66.85-3.85 65.86-2.48 64.87-1.1 63.21-0.29 61.55 0.53 59.05 0.53ZM71.25 0L67.2 0 67.37-5.9 67.3-7.2 67.3-17.4 67.32-18.25 67.22-25.18 67.22-33.13 71.25-33.13 71.25 0ZM88.09 0.55L88.09 0.55Q82.52 0.55 79.69-2.18 76.87-4.9 76.87-9.98L76.87-9.98 76.87-14.33Q76.87-19.48 79.49-22.26 82.12-25.05 87.17-25.05L87.17-25.05Q90.57-25.05 92.84-23.79 95.12-22.53 96.27-20.2 97.42-17.88 97.42-14.65L97.42-14.65 97.42-13.75Q97.42-12.95 97.36-12.15 97.29-11.35 97.19-10.58L97.19-10.58 93.47-10.58Q93.52-11.78 93.53-12.85 93.54-13.93 93.54-14.83L93.54-14.83Q93.54-17.05 92.83-18.59 92.12-20.13 90.71-20.94 89.29-21.75 87.17-21.75L87.17-21.75Q84.02-21.75 82.44-19.93 80.87-18.1 80.87-14.7L80.87-14.7 80.87-12.38 80.89-11.88 80.89-9.55Q80.89-8.03 81.34-6.8 81.79-5.58 82.76-4.69 83.72-3.8 85.21-3.34 86.69-2.88 88.74-2.88L88.74-2.88Q91.12-2.88 93.17-3.5 95.22-4.13 97.02-5.2L97.02-5.2 96.64-1.7Q95.02-0.68 92.87-0.06 90.72 0.55 88.09 0.55ZM96.34-10.58L78.99-10.58 78.99-13.63 96.34-13.63 96.34-10.58ZM111.02-33.8L111.02-33.8Q112.89-33.8 114.38-33.46 115.87-33.13 117.12-32.63L117.12-32.63 117.52-29.45Q116.29-29.9 115.05-30.16 113.82-30.43 112.27-30.43L112.27-30.43Q110.39-30.43 109.25-29.94 108.12-29.45 107.63-28.56 107.14-27.68 107.14-26.43L107.14-26.43 107.14-26.3Q107.14-25.43 107.37-24.64 107.59-23.85 107.87-23.2L107.87-23.2 105.14-23.1 105.14-23.6Q104.37-24.2 103.78-25.28 103.19-26.35 103.19-27.78L103.19-27.78 103.19-27.9Q103.19-30.58 105.09-32.19 106.99-33.8 111.02-33.8ZM108.04 0L104.02 0 104.02-22.23 108.04-22.23 108.04 0ZM117.04-20.25L99.99-20.25 99.99-23.48 105.57-23.45 107.22-23.48 117.42-23.48 117.04-20.25ZM125.44-14.93L125.44-14.93 124.51-18.05 125.51-18.1Q126.31-21.2 128.26-22.99 130.21-24.78 133.44-24.78L133.44-24.78Q134.24-24.78 134.88-24.65 135.51-24.53 136.01-24.35L136.01-24.35 136.26-20.43Q135.64-20.63 134.88-20.75 134.11-20.88 133.19-20.88L133.19-20.88Q130.44-20.88 128.4-19.35 126.36-17.82 125.44-14.93ZM125.64 0L121.59 0 121.59-24.4 125.54-24.4 125.34-17.2 125.64-16.9 125.64 0ZM150.49 0.55L150.49 0.55Q144.91 0.55 142.09-2.18 139.26-4.9 139.26-9.98L139.26-9.98 139.26-14.33Q139.26-19.48 141.89-22.26 144.51-25.05 149.56-25.05L149.56-25.05Q152.96-25.05 155.24-23.79 157.51-22.53 158.66-20.2 159.81-17.88 159.81-14.65L159.81-14.65 159.81-13.75Q159.81-12.95 159.75-12.15 159.69-11.35 159.59-10.58L159.59-10.58 155.86-10.58Q155.91-11.78 155.92-12.85 155.94-13.93 155.94-14.83L155.94-14.83Q155.94-17.05 155.22-18.59 154.51-20.13 153.1-20.94 151.69-21.75 149.56-21.75L149.56-21.75Q146.41-21.75 144.84-19.93 143.26-18.1 143.26-14.7L143.26-14.7 143.26-12.38 143.29-11.88 143.29-9.55Q143.29-8.03 143.74-6.8 144.19-5.58 145.15-4.69 146.11-3.8 147.6-3.34 149.09-2.88 151.14-2.88L151.14-2.88Q153.51-2.88 155.56-3.5 157.61-4.13 159.41-5.2L159.41-5.2 159.04-1.7Q157.41-0.68 155.26-0.06 153.11 0.55 150.49 0.55ZM158.74-10.58L141.39-10.58 141.39-13.63 158.74-13.63 158.74-10.58ZM175.46 0.55L175.46 0.55Q169.88 0.55 167.06-2.18 164.23-4.9 164.23-9.98L164.23-9.98 164.23-14.33Q164.23-19.48 166.86-22.26 169.48-25.05 174.53-25.05L174.53-25.05Q177.93-25.05 180.21-23.79 182.48-22.53 183.63-20.2 184.78-17.88 184.78-14.65L184.78-14.65 184.78-13.75Q184.78-12.95 184.72-12.15 184.66-11.35 184.56-10.58L184.56-10.58 180.83-10.58Q180.88-11.78 180.9-12.85 180.91-13.93 180.91-14.83L180.91-14.83Q180.91-17.05 180.2-18.59 179.48-20.13 178.07-20.94 176.66-21.75 174.53-21.75L174.53-21.75Q171.38-21.75 169.81-19.93 168.23-18.1 168.23-14.7L168.23-14.7 168.23-12.38 168.26-11.88 168.26-9.55Q168.26-8.03 168.71-6.8 169.16-5.58 170.12-4.69 171.08-3.8 172.57-3.34 174.06-2.88 176.11-2.88L176.11-2.88Q178.48-2.88 180.53-3.5 182.58-4.13 184.38-5.2L184.38-5.2 184.01-1.7Q182.38-0.68 180.23-0.06 178.08 0.55 175.46 0.55ZM183.71-10.58L166.36-10.58 166.36-13.63 183.71-13.63 183.71-10.58Z" opacity="1" transform="matrix(1,0,0,1,0,0)" fill="black" class="wordmark-text-0" id="SvgjsPath1093"></path></svg></g></svg></g><g transform="matrix(1,0,0,1,0,49.70708398266316)"><svg viewBox="0 0 213.1584412271571 23.347983420418835" height="23.347983420418835" width="213.1584412271571"><g transform="matrix(1,0,0,1,0,0)"><svg width="213.1584412271571" viewBox="2.64 -34.03 312.90000000000003 34.27" height="23.347983420418835" data-palette-color="#000000"><path d="M18.31-4.15L18.31-4.15 19.48-1.93Q16.5 0.24 12.38 0.24L12.38 0.24Q8.11 0.24 5.37-2.95 2.64-6.15 2.64-12.08L2.64-12.08Q2.64-24.41 12.11-24.41L12.11-24.41Q15.43-24.41 18.53-22.95L18.53-22.95 18.53-16.65 16.04-16.41 16.04-21.29Q14.43-21.92 12.06-21.92L12.06-21.92Q10.25-21.92 9-21.22 7.74-20.51 7.04-19.14 6.35-17.77 6.05-16.05 5.76-14.33 5.76-12.04L5.76-12.04Q5.76-7.37 7.65-4.83 9.55-2.29 12.72-2.29L12.72-2.29Q15.58-2.29 18.31-4.15ZM40.17-2.97Q37.86 0.24 33.1 0.24 28.34 0.24 26.04-2.97 23.73-6.18 23.73-12.08L23.73-12.08Q23.73-18.26 25.99-21.34 28.24-24.41 33.1-24.41 37.96-24.41 40.22-21.34 42.48-18.26 42.48-12.08L42.48-12.08Q42.48-6.18 40.17-2.97ZM35.59-21.37Q34.52-21.85 33.1-21.85 31.69-21.85 30.61-21.37 29.54-20.9 28.83-20.07 28.12-19.24 27.67-17.99 27.22-16.75 27.04-15.31 26.85-13.87 26.85-12.08L26.85-12.08Q26.85-9.79 27.15-8.09 27.44-6.4 28.13-5.05 28.83-3.71 30.08-3.03 31.32-2.34 33.1-2.34 34.89-2.34 36.13-3.03 37.38-3.71 38.07-5.05 38.77-6.4 39.06-8.09 39.35-9.79 39.35-12.08L39.35-12.08Q39.35-13.87 39.17-15.31 38.99-16.75 38.54-17.99 38.08-19.24 37.38-20.07 36.67-20.9 35.59-21.37ZM63.23-22.53L63.23-33.15 66.35-33.15 66.35 0 63.81 0 63.57-1.22Q60.83 0.24 57.66 0.24L57.66 0.24Q55.41 0.24 53.66-0.43 51.9-1.1 50.54-2.53 49.19-3.96 48.47-6.36 47.75-8.76 47.75-12.04L47.75-12.04Q47.75-14.6 48.24-16.69 48.73-18.77 49.57-20.19 50.41-21.61 51.58-22.57 52.75-23.54 54.1-23.97 55.44-24.41 56.93-24.41L56.93-24.41Q58.59-24.41 60.03-24.02 61.47-23.63 63.23-22.53L63.23-22.53ZM63.23-3.34L63.23-3.34 63.23-19.75Q61.23-20.9 59.89-21.37 58.56-21.85 57.32-21.85L57.32-21.85Q54.34-21.85 52.61-19.37 50.87-16.89 50.87-11.99L50.87-11.99Q50.87-2.34 58.1-2.34L58.1-2.34 58.78-2.34Q61.08-2.34 63.23-3.34ZM82.17-21.85L82.17-21.85Q79.09-21.85 77.46-19.71 75.82-17.58 75.53-13.65L75.53-13.65 87.91-13.65 87.91-14.87Q87.91-18.07 86.36-19.96 84.81-21.85 82.17-21.85ZM82.59-2.34L82.59-2.34Q86.35-2.34 89.42-4.3L89.42-4.3 90.37-1.83Q88.71-0.81 86.66-0.28 84.61 0.24 82.76 0.24L82.76 0.24Q77.82 0.24 75.11-2.73 72.4-5.71 72.4-12.11L72.4-12.11Q72.4-18.24 75.04-21.33 77.68-24.41 82.15-24.41L82.15-24.41Q86.17-24.41 88.49-21.78 90.81-19.14 90.81-14.75L90.81-14.75Q90.81-13.75 90.62-11.45L90.62-11.45 75.53-11.45Q75.55-9.28 75.97-7.63 76.38-5.98 77.02-4.99 77.65-4 78.59-3.39 79.53-2.78 80.49-2.56 81.44-2.34 82.59-2.34ZM119.15 0L116.03 0 116.03-21.8 111.34-21.8 111.34-24.05 116.03-24.05Q116.03-26.81 116.28-28.55 116.54-30.3 117.24-31.57 117.93-32.84 119.16-33.4 120.4-33.96 122.35-34.03L122.35-34.03Q125.01-34.03 126.87-33.4L126.87-33.4 126.48-30.96Q125.96-31.1 124.82-31.29 123.67-31.47 123.03-31.47L123.03-31.47Q121.89-31.47 121.22-31.23 120.54-30.98 120.04-30.19 119.54-29.39 119.35-27.94 119.15-26.49 119.15-24.05L119.15-24.05 124.62-24.05 124.62-21.8 119.15-21.8 119.15 0ZM133.11-24.05L133.24-21.95Q134.68-22.92 136.89-23.63 139.1-24.34 140.95-24.41L140.95-24.41 140.95-21.8Q138.83-21.8 136.64-21.15 134.46-20.51 133.26-19.63L133.26-19.63 133.26 0 130.14 0 130.14-24.05 133.11-24.05ZM154.87-21.85L154.87-21.85Q151.79-21.85 150.15-19.71 148.52-17.58 148.22-13.65L148.22-13.65 160.6-13.65 160.6-14.87Q160.6-18.07 159.05-19.96 157.5-21.85 154.87-21.85ZM155.28-2.34L155.28-2.34Q159.04-2.34 162.12-4.3L162.12-4.3 163.07-1.83Q161.41-0.81 159.36-0.28 157.31 0.24 155.45 0.24L155.45 0.24Q150.52 0.24 147.81-2.73 145.1-5.71 145.1-12.11L145.1-12.11Q145.1-18.24 147.74-21.33 150.37-24.41 154.84-24.41L154.84-24.41Q158.87-24.41 161.19-21.78 163.51-19.14 163.51-14.75L163.51-14.75Q163.51-13.75 163.31-11.45L163.31-11.45 148.22-11.45Q148.25-9.28 148.66-7.63 149.08-5.98 149.71-4.99 150.35-4 151.29-3.39 152.23-2.78 153.18-2.56 154.13-2.34 155.28-2.34ZM178.4-21.85L178.4-21.85Q175.32-21.85 173.69-19.71 172.05-17.58 171.76-13.65L171.76-13.65 184.14-13.65 184.14-14.87Q184.14-18.07 182.58-19.96 181.03-21.85 178.4-21.85ZM178.81-2.34L178.81-2.34Q182.57-2.34 185.65-4.3L185.65-4.3 186.6-1.83Q184.94-0.81 182.89-0.28 180.84 0.24 178.98 0.24L178.98 0.24Q174.05 0.24 171.34-2.73 168.63-5.71 168.63-12.11L168.63-12.11Q168.63-18.24 171.27-21.33 173.91-24.41 178.37-24.41L178.37-24.41Q182.4-24.41 184.72-21.78 187.04-19.14 187.04-14.75L187.04-14.75Q187.04-13.75 186.85-11.45L186.85-11.45 171.76-11.45Q171.78-9.28 172.2-7.63 172.61-5.98 173.25-4.99 173.88-4 174.82-3.39 175.76-2.78 176.71-2.56 177.67-2.34 178.81-2.34ZM220.65-18.63L223.53-18.63 228.76-2.76 233.1-24.05 236.16-24.05 230.69 0 227.27 0 222.09-15.31 216.94 0 213.48 0 207.64-24.05 210.69-24.05 215.36-2.76 220.65-18.63ZM256.82-2.97Q254.51 0.24 249.75 0.24 244.99 0.24 242.68-2.97 240.38-6.18 240.38-12.08L240.38-12.08Q240.38-18.26 242.64-21.34 244.89-24.41 249.75-24.41 254.61-24.41 256.87-21.34 259.13-18.26 259.13-12.08L259.13-12.08Q259.13-6.18 256.82-2.97ZM252.24-21.37Q251.17-21.85 249.75-21.85 248.34-21.85 247.26-21.37 246.19-20.9 245.48-20.07 244.77-19.24 244.32-17.99 243.87-16.75 243.69-15.31 243.5-13.87 243.5-12.08L243.5-12.08Q243.5-9.79 243.8-8.09 244.09-6.4 244.78-5.05 245.48-3.71 246.73-3.03 247.97-2.34 249.75-2.34 251.54-2.34 252.78-3.03 254.03-3.71 254.72-5.05 255.42-6.4 255.71-8.09 256-9.79 256-12.08L256-12.08Q256-13.87 255.82-15.31 255.64-16.75 255.18-17.99 254.73-19.24 254.03-20.07 253.32-20.9 252.24-21.37ZM268.3-24.05L268.43-21.95Q269.87-22.92 272.08-23.63 274.29-24.34 276.14-24.41L276.14-24.41 276.14-21.8Q274.02-21.8 271.83-21.15 269.65-20.51 268.45-19.63L268.45-19.63 268.45 0 265.33 0 265.33-24.05 268.3-24.05ZM279.41-30.93L279.41-33.15 287.93-33.15 287.93-2.2 293.08-2.2 293.08 0 279.36 0 279.36-2.2 284.81-2.2 284.81-30.93 279.41-30.93ZM312.42-22.53L312.42-33.15 315.54-33.15 315.54 0 313 0 312.76-1.22Q310.02 0.24 306.85 0.24L306.85 0.24Q304.6 0.24 302.85-0.43 301.09-1.1 299.73-2.53 298.38-3.96 297.66-6.36 296.94-8.76 296.94-12.04L296.94-12.04Q296.94-14.6 297.43-16.69 297.91-18.77 298.76-20.19 299.6-21.61 300.77-22.57 301.94-23.54 303.29-23.97 304.63-24.41 306.12-24.41L306.12-24.41Q307.78-24.41 309.22-24.02 310.66-23.63 312.42-22.53L312.42-22.53ZM312.42-3.34L312.42-3.34 312.42-19.75Q310.41-20.9 309.08-21.37 307.75-21.85 306.51-21.85L306.51-21.85Q303.53-21.85 301.8-19.37 300.06-16.89 300.06-11.99L300.06-11.99Q300.06-2.34 307.29-2.34L307.29-2.34 307.97-2.34Q310.27-2.34 312.42-3.34Z" opacity="1" transform="matrix(1,0,0,1,0,0)" fill="black" class="slogan-text-1" id="SvgjsPath1092"></path></svg></g></svg></g></svg></g></svg></g><g transform="matrix(1,0,0,1,55.22306531721871,0)"><svg viewBox="0 0 102.71231059271969 100.96210315105932" height="100.96210315105932" width="102.71231059271969"><g><svg xmlns="http://www.w3.org/2000/svg" xml:space="preserve" viewBox="-345.9993836358223 257.9479943277313 99.75176572719312 98.0520056722687" x="0" y="0" height="100.96210315105932" width="102.71231059271969" class="icon-icon-0" data-fill-palette-color="quaternary" id="SvgjsSvg1091"><path d="M-246.455 327.152l-16.86-64.454s-1.243-4.756-6.002-4.75l-72.96 0.08s-4.759 0.004-3.515 4.761l15.835 60.538c7.148-15.684 15.203-33.301 15.795-34.599l0.423-0.924 21.84-0.021-1.048 2.253c-5.985 12.87-13.768 29.775-19.236 41.944l62.212-0.067c0.001-0.001 4.76-0.007 3.516-4.761" fill="black"></path><path d="M-296.864 290.954l-14.839 0.015c-9.094 19.892-25.758 56.396-26.425 58.074-1.594 4.007 0.346 6.235 1.171 6.957h56.176l-1.875-4.804h-35.137q-0.067 0.004-0.184 0.005c-1.988 0-3.998-1.204-4.006-3.894-0.002-0.629-0.004-1.579 13.149-30.369a5465 5465 0 0 1 11.97-25.984" fill="black"></path></svg></g></svg></g><g></g></svg></g></svg></g></svg></g></svg></g><defs><mask></mask></defs></svg><rect width="342.85155851775386" height="342.85155851775386" fill="black" stroke="none" visibility="hidden"></rect></g></mask><linearGradient x1="0" x2="1" y1="0.578" y2="0.595" id="67b4d550-c8ea-4158-b5da-23e2dde67b48"><stop stop-color="#6ee2f5" offset="0"></stop><stop stop-color="#6454f0" offset="1"></stop></linearGradient></svg><rect width="342.85155851775386" height="342.85155851775386" fill="none" stroke="none" visibility="hidden"></rect></g></svg></g></svg>