 <!DOCTYPE svg PUBLIC "-//W3C//DTD SVG 1.1//EN" "http://www.w3.org/Graphics/SVG/1.1/DTD/svg11.dtd">
<svg id="f0a080c0-4ea1-4b4b-99f9-3d2355b20f45" data-name="Layer 1" xmlns="http://www.w3.org/2000/svg" width="865.76" height="682.89" viewBox="0 0 865.76 682.89">
<defs>
<style xmlns="http://www.w3.org/1999/xhtml">*, ::after, ::before { box-sizing: border-box; }
img, svg { vertical-align: middle; }
</style>
<style xmlns="http://www.w3.org/1999/xhtml">*, body, html { -webkit-font-smoothing: antialiased; }
img, svg { max-width: 100%; }
</style>
</defs>
<rect x="16.85" y="576.33" width="832.07" height="0.42" fill="#ececec"/>
<rect x="710.43" y="603.11" width="55.12" height="0.42" fill="#ececec"/>
<rect x="553.58" y="607.63" width="14.47" height="0.42" fill="#ececec"/>
<rect x="676.82" y="587.66" width="31.94" height="0.42" fill="#ececec"/>
<rect x="104.14" y="590.46" width="71.88" height="0.42" fill="#ececec"/>
<rect x="190.84" y="590.46" width="10.54" height="0.42" fill="#ececec"/>
<rect x="235.63" y="597.48" width="155.89" height="0.42" fill="#ececec"/>
<path d="M411.27,502.11H89.93a9.51,9.51,0,0,1-9.5-9.5V40.91a9.51,9.51,0,0,1,9.5-9.5H411.27a9.51,9.51,0,0,1,9.5,9.5v451.7A9.51,9.51,0,0,1,411.27,502.11ZM89.93,31.82a9.1,9.1,0,0,0-9.09,9.09v451.7a9.09,9.09,0,0,0,9.09,9.08H411.27a9.09,9.09,0,0,0,9.08-9.08V40.91a9.09,9.09,0,0,0-9.08-9.09Z" fill="#ececec"/>
<path d="M771.22,502.11H449.88a9.51,9.51,0,0,1-9.5-9.5V40.91a9.51,9.51,0,0,1,9.5-9.5H771.22a9.51,9.51,0,0,1,9.5,9.5v451.7A9.51,9.51,0,0,1,771.22,502.11ZM449.88,31.82a9.1,9.1,0,0,0-9.09,9.09v451.7a9.09,9.09,0,0,0,9.09,9.08H771.22a9.09,9.09,0,0,0,9.08-9.08V40.91a9.09,9.09,0,0,0-9.08-9.09Z" fill="#ececec"/>
<circle cx="668.48" cy="85.4" r="46.24" fill="#fafafa"/>
<path d="M644.49,84.87a8,8,0,0,0-8-8,8,8,0,0,0-2.3.34,18.29,18.29,0,0,0,.18-2.47A17,17,0,0,0,614.17,58a14.88,14.88,0,0,0-27.59,7.52h-.25a13.71,13.71,0,0,0,0,27.42h50.35A8,8,0,0,0,644.49,84.87Z" fill="#f0f0f0"/>
<path d="M413.06,175.36a8,8,0,0,0-8-8,8,8,0,0,0-2.3.34,18.17,18.17,0,0,0,.18-2.47,17,17,0,0,0-17-17,17.86,17.86,0,0,0-3.13.29A14.88,14.88,0,0,0,355.15,156l-.25,0a13.72,13.72,0,0,0,0,27.43h50.35A8,8,0,0,0,413.06,175.36Z" fill="#f0f0f0"/>
<path d="M120.62,75.13A8,8,0,0,1,131,67.43a16.7,16.7,0,0,1-.18-2.47,17,17,0,0,1,20.16-16.73,14.88,14.88,0,0,1,27.59,7.53l.25,0a13.72,13.72,0,0,1,0,27.43H128.43A8,8,0,0,1,120.62,75.13Z" fill="#f0f0f0"/>
<path d="M745.35,109a5,5,0,0,0-5-5,5.28,5.28,0,0,0-1.44.21,9.67,9.67,0,0,0,.11-1.53,10.54,10.54,0,0,0-12.53-10.4,9.25,9.25,0,0,0-17.15,4.67h-.15a8.53,8.53,0,1,0,0,17h31.3A5,5,0,0,0,745.35,109Z" fill="#f0f0f0"/>
<path d="M402.44,66.83a5,5,0,0,1,5-5,4.85,4.85,0,0,1,1.43.21,11,11,0,0,1-.11-1.53,10.59,10.59,0,0,1,10.58-10.59,11.31,11.31,0,0,1,2,.18,9.25,9.25,0,0,1,17.15,4.68h.16a8.53,8.53,0,0,1,0,17H407.29A5,5,0,0,1,402.44,66.83Z" fill="#f0f0f0"/>
<path d="M137.76,296.87a15.64,15.64,0,0,1-.47-3.12c-.39-6.48-6.57-5.46-11.84-6.34-4.11-.68,6.78-11.07-1.51-14.42-1.54-.63-3.22-1.33-4-2.79-1-1.94,0-4.48,1.8-5.75a11.14,11.14,0,0,1,6.3-1.58c1.35-1.64.25-4.12-1.06-5.8s-2.91-3.59-2.42-5.66c.75-3.12,5.12-3.23,8.28-2.63,1.17-1.89,1.14-4.25,1.71-6.39s2.27-4.4,4.47-4.13,3.35,2.59,5.39,3.07c2.36.56,4.41-1.53,6.26-3.1s5.1-2.55,6.38-.48c.76,1.24.3,3,1.1,4.18,1.37,2.11,4.64.8,6.67-.7s5.26-2.85,6.68-.77a8.33,8.33,0,0,1,.79,2.16c1,2.77,4,4.15,6.28,5.93s4.18,5.3,2.21,7.47c-1,1.07-2.69,1.5-3.17,2.86-.6,1.71,1.14,3.23,2.51,4.4,2.29,2,2.71,7.78-.32,9.38-1.27.67-3.14.87-3.45,2.27s1,2.24,1.84,3.2a6,6,0,0,1-1.84,9c-.73.35-1.62.64-1.89,1.4a2.83,2.83,0,0,0,.17,1.69,8.69,8.69,0,0,1,.29,3.25,1.49,1.49,0,0,1-.39,1,1.59,1.59,0,0,1-1,.27c-4.38.19-6.49-1.36-9.16,2.45a3.12,3.12,0,0,1-.91,1,2.91,2.91,0,0,1-1.2.3c-3,.25-5-1.63-7.72-2-3.82-.49-4.62,1.48-8,3.06C141.31,302,138.75,300.47,137.76,296.87Z" fill="#ececec"/>
<path d="M188.13,291.43a15.63,15.63,0,0,1-.47-3.13c-.38-6.48-6.57-5.45-11.83-6.33-4.12-.69,6.77-11.07-1.52-14.43-1.54-.62-3.21-1.32-4-2.78-1-1.94,0-4.49,1.81-5.75a11.11,11.11,0,0,1,6.29-1.58c1.35-1.65.25-4.12-1-5.8s-2.92-3.59-2.42-5.66c.75-3.13,5.12-3.24,8.27-2.63,1.17-1.89,1.15-4.25,1.71-6.4s2.28-4.4,4.48-4.13,3.34,2.6,5.38,3.08c2.36.56,4.41-1.54,6.27-3.1s5.09-2.55,6.37-.49c.77,1.24.31,3,1.1,4.18,1.38,2.11,4.65.8,6.67-.69s5.26-2.85,6.69-.78a8.93,8.93,0,0,1,.79,2.17c1,2.77,4,4.15,6.28,5.92s4.18,5.31,2.2,7.48c-1,1.07-2.68,1.5-3.16,2.86-.61,1.7,1.13,3.23,2.51,4.4,2.29,2,2.7,7.78-.33,9.37-1.27.67-3.13.88-3.44,2.28s1,2.23,1.84,3.2a6,6,0,0,1-1.85,9c-.72.35-1.62.64-1.89,1.4a2.85,2.85,0,0,0,.18,1.69,9.09,9.09,0,0,1,.29,3.24,1.46,1.46,0,0,1-.4,1,1.51,1.51,0,0,1-1,.27c-4.37.2-6.48-1.35-9.15,2.46a3.21,3.21,0,0,1-.91,1,2.77,2.77,0,0,1-1.21.3c-3,.25-5-1.62-7.72-2-3.81-.49-4.62,1.48-8,3.05C191.69,296.56,189.13,295,188.13,291.43Z" fill="#ececec"/>
<path d="M193,259.35a15.63,15.63,0,0,1-.47-3.13c-.39-6.48-6.57-5.45-11.84-6.33-4.11-.69,6.78-11.08-1.51-14.43-1.54-.62-3.22-1.32-4-2.79-1-1.93,0-4.48,1.8-5.74a11.12,11.12,0,0,1,6.3-1.58c1.35-1.65.25-4.12-1.06-5.8s-2.91-3.59-2.42-5.66c.75-3.13,5.12-3.24,8.28-2.63,1.17-1.89,1.14-4.25,1.71-6.4s2.27-4.4,4.47-4.13,3.35,2.6,5.38,3.08c2.37.55,4.42-1.54,6.27-3.1s5.1-2.55,6.38-.49c.76,1.24.3,3,1.1,4.18,1.37,2.11,4.64.8,6.67-.69s5.26-2.86,6.68-.78a8.53,8.53,0,0,1,.79,2.17c1,2.77,3.95,4.15,6.28,5.92s4.18,5.31,2.21,7.48c-1,1.07-2.69,1.5-3.17,2.86-.6,1.7,1.14,3.23,2.51,4.4,2.29,2,2.71,7.78-.32,9.37-1.27.67-3.14.88-3.45,2.28-.28,1.25,1,2.23,1.84,3.2a6,6,0,0,1-1.84,9c-.73.35-1.62.63-1.89,1.39a2.87,2.87,0,0,0,.17,1.7,8.66,8.66,0,0,1,.29,3.24,1.47,1.47,0,0,1-.39,1,1.52,1.52,0,0,1-1,.27c-4.38.2-6.49-1.35-9.16,2.45a2.92,2.92,0,0,1-.91,1,2.77,2.77,0,0,1-1.2.3c-3,.25-5-1.63-7.72-2-3.82-.48-4.62,1.48-8,3.06C196.54,264.48,194,263,193,259.35Z" fill="#ececec"/>
<path d="M226.17,275.33a15.63,15.63,0,0,1-.47-3.13c-.38-6.48-6.57-5.45-11.83-6.33-4.12-.69,6.77-11.08-1.52-14.43-1.54-.62-3.21-1.32-4-2.79-1-1.93,0-4.48,1.81-5.75a11.16,11.16,0,0,1,6.29-1.57c1.35-1.65.25-4.12-1.06-5.8s-2.91-3.59-2.41-5.66c.75-3.13,5.12-3.24,8.27-2.63,1.17-1.89,1.15-4.25,1.71-6.4s2.28-4.4,4.48-4.13,3.34,2.6,5.38,3.08c2.36.55,4.41-1.54,6.26-3.11s5.1-2.54,6.38-.48c.76,1.24.31,3,1.1,4.18,1.38,2.11,4.65.8,6.67-.69s5.26-2.86,6.69-.78a8.51,8.51,0,0,1,.78,2.17c1,2.77,4,4.15,6.29,5.92s4.18,5.31,2.2,7.48c-1,1.06-2.68,1.5-3.17,2.86-.6,1.7,1.14,3.23,2.52,4.4,2.29,1.95,2.7,7.78-.33,9.37-1.27.67-3.13.88-3.45,2.28s1,2.23,1.84,3.2a6,6,0,0,1-1.84,9c-.73.35-1.62.63-1.89,1.39a2.87,2.87,0,0,0,.18,1.7,9.07,9.07,0,0,1,.29,3.24,1.48,1.48,0,0,1-.4,1,1.52,1.52,0,0,1-1,.27c-4.37.2-6.48-1.35-9.15,2.45a3.14,3.14,0,0,1-.91,1,2.77,2.77,0,0,1-1.21.3c-3,.25-5-1.63-7.72-2-3.81-.48-4.62,1.48-8,3.06C229.73,280.46,227.17,278.93,226.17,275.33Z" fill="#ececec"/>
<path d="M259.71,268a15.63,15.63,0,0,1-.47-3.13c-.39-6.48-6.57-5.45-11.84-6.33-4.11-.69,6.78-11.08-1.51-14.43-1.54-.62-3.22-1.32-4-2.79-1-1.93,0-4.48,1.8-5.75A11.21,11.21,0,0,1,250,234c1.35-1.65.25-4.12-1.06-5.8s-2.91-3.59-2.41-5.66c.75-3.13,5.11-3.24,8.27-2.63,1.17-1.89,1.14-4.25,1.71-6.4s2.27-4.4,4.48-4.13,3.34,2.6,5.38,3.08c2.36.55,4.41-1.54,6.26-3.11s5.1-2.54,6.38-.48c.76,1.24.3,3,1.1,4.18,1.38,2.11,4.64.8,6.67-.69s5.26-2.86,6.69-.78a8.91,8.91,0,0,1,.78,2.17c1,2.77,3.95,4.15,6.29,5.92s4.17,5.31,2.2,7.47c-1,1.07-2.68,1.51-3.17,2.87-.6,1.7,1.14,3.23,2.51,4.4,2.29,1.95,2.71,7.78-.32,9.37-1.27.67-3.14.88-3.45,2.28s1,2.23,1.84,3.2a6,6,0,0,1-1.84,9c-.73.35-1.62.63-1.89,1.39a3,3,0,0,0,.17,1.7,8.64,8.64,0,0,1,.29,3.24,1.47,1.47,0,0,1-.39,1,1.52,1.52,0,0,1-1,.27c-4.37.2-6.48-1.35-9.15,2.45a3.05,3.05,0,0,1-.92,1,2.77,2.77,0,0,1-1.2.3c-3,.25-5-1.63-7.72-2-3.81-.48-4.62,1.48-8,3.06C263.26,273.08,260.7,271.55,259.71,268Z" fill="#ececec"/>
<path d="M260.15,303.82a11.69,11.69,0,0,1-.37-2.46c-.31-5.1-5.18-4.29-9.32-5-3.24-.54,5.33-8.72-1.2-11.36a5.75,5.75,0,0,1-3.15-2.19c-.82-1.52,0-3.53,1.43-4.53a8.71,8.71,0,0,1,5-1.24c1.07-1.3.2-3.24-.83-4.57s-2.29-2.82-1.9-4.45c.59-2.46,4-2.55,6.51-2.07.92-1.49.91-3.35,1.35-5s1.79-3.46,3.53-3.25,2.63,2,4.23,2.42c1.86.44,3.48-1.21,4.94-2.44s4-2,5-.38c.6,1,.24,2.33.86,3.29,1.09,1.66,3.66.63,5.26-.55s4.14-2.25,5.26-.61a7,7,0,0,1,.62,1.71c.75,2.18,3.11,3.26,5,4.66s3.29,4.18,1.73,5.89c-.76.84-2.11,1.18-2.49,2.25-.48,1.34.89,2.54,2,3.46,1.8,1.54,2.13,6.13-.26,7.38-1,.53-2.47.69-2.71,1.8s.78,1.75,1.44,2.52a4.73,4.73,0,0,1-1.45,7.05c-.57.28-1.27.5-1.48,1.1a2.19,2.19,0,0,0,.13,1.33,7.13,7.13,0,0,1,.23,2.56,1.19,1.19,0,0,1-.31.8,1.17,1.17,0,0,1-.76.21c-3.44.16-5.1-1.06-7.2,1.94a2.75,2.75,0,0,1-.72.76,2.22,2.22,0,0,1-.95.23c-2.37.2-3.92-1.28-6.08-1.55-3-.39-3.64,1.16-6.28,2.4C263,307.86,260.93,306.66,260.15,303.82Z" fill="#ececec"/>
<path d="M278.94,291.43a15.63,15.63,0,0,1-.47-3.13c-.39-6.48-6.57-5.45-11.84-6.33-4.11-.69,6.78-11.07-1.51-14.43-1.54-.62-3.22-1.32-4-2.78-1-1.94,0-4.49,1.8-5.75a11.14,11.14,0,0,1,6.3-1.58c1.35-1.65.25-4.12-1.06-5.8s-2.91-3.59-2.41-5.66c.75-3.13,5.11-3.24,8.27-2.63,1.17-1.89,1.14-4.25,1.71-6.4s2.27-4.4,4.48-4.13,3.34,2.6,5.38,3.08c2.36.56,4.41-1.54,6.26-3.1s5.1-2.55,6.38-.49c.76,1.24.3,3,1.1,4.18,1.38,2.11,4.64.8,6.67-.69s5.26-2.85,6.69-.78a8.91,8.91,0,0,1,.78,2.17c1,2.77,3.95,4.15,6.29,5.92s4.17,5.31,2.2,7.48c-1,1.07-2.68,1.5-3.17,2.86-.6,1.7,1.14,3.23,2.51,4.4,2.29,2,2.71,7.78-.32,9.37-1.27.67-3.14.88-3.45,2.28s1,2.23,1.84,3.2a6,6,0,0,1-1.84,9c-.73.35-1.62.64-1.89,1.4a2.92,2.92,0,0,0,.17,1.69,8.66,8.66,0,0,1,.29,3.24,1.45,1.45,0,0,1-.39,1,1.52,1.52,0,0,1-1,.27c-4.37.2-6.48-1.35-9.15,2.46a3.13,3.13,0,0,1-.92,1,2.77,2.77,0,0,1-1.2.3c-3,.25-5-1.62-7.72-2-3.82-.49-4.62,1.48-8,3.05C282.49,296.56,279.93,295,278.94,291.43Z" fill="#ececec"/>
<path d="M226.17,235.86a15.42,15.42,0,0,1-.47-3.12c-.38-6.48-6.57-5.45-11.83-6.33-4.12-.69,6.77-11.08-1.52-14.43-1.54-.62-3.21-1.33-4-2.79-1-1.93,0-4.48,1.81-5.75a11.17,11.17,0,0,1,6.29-1.58c1.35-1.64.25-4.11-1.06-5.79s-2.91-3.59-2.41-5.66c.75-3.13,5.12-3.24,8.27-2.63,1.17-1.89,1.15-4.25,1.71-6.4s2.28-4.4,4.48-4.13,3.34,2.6,5.38,3.07c2.36.56,4.41-1.53,6.26-3.1s5.1-2.54,6.38-.48c.76,1.24.31,3,1.1,4.18,1.38,2.11,4.65.8,6.67-.7s5.26-2.85,6.69-.77a8.51,8.51,0,0,1,.78,2.17c1,2.77,4,4.14,6.29,5.92s4.18,5.31,2.2,7.47c-1,1.07-2.68,1.51-3.17,2.87-.6,1.7,1.14,3.23,2.52,4.4,2.29,1.95,2.7,7.78-.33,9.37-1.27.67-3.13.88-3.45,2.28-.27,1.25,1,2.23,1.84,3.2a6,6,0,0,1-1.84,9c-.73.35-1.62.63-1.89,1.39a2.83,2.83,0,0,0,.18,1.69,9.15,9.15,0,0,1,.29,3.25,1.48,1.48,0,0,1-.4,1,1.59,1.59,0,0,1-1,.27c-4.37.19-6.48-1.35-9.15,2.45a3.14,3.14,0,0,1-.91,1,2.77,2.77,0,0,1-1.21.3c-3,.25-5-1.63-7.72-2-3.81-.48-4.62,1.48-8,3.06C229.73,241,227.17,239.46,226.17,235.86Z" fill="#ececec"/>
<path d="M183.09,238.07a15.63,15.63,0,0,1-.47-3.13c-.39-6.48-6.58-5.45-11.84-6.33-4.11-.69,6.78-11.07-1.51-14.43-1.54-.62-3.22-1.32-4-2.78-1.05-1.94,0-4.49,1.8-5.75a11.12,11.12,0,0,1,6.3-1.58c1.35-1.65.25-4.12-1.06-5.8s-2.91-3.59-2.42-5.66c.75-3.13,5.12-3.24,8.28-2.63,1.16-1.89,1.14-4.25,1.71-6.4s2.27-4.4,4.47-4.13,3.35,2.6,5.38,3.08c2.37.56,4.42-1.54,6.27-3.1s5.1-2.55,6.38-.49c.76,1.24.3,3,1.1,4.18,1.37,2.11,4.64.8,6.67-.69s5.26-2.85,6.68-.78a8.53,8.53,0,0,1,.79,2.17c1,2.77,3.95,4.15,6.28,5.92s4.18,5.31,2.21,7.48c-1,1.07-2.69,1.5-3.17,2.86-.6,1.7,1.14,3.23,2.51,4.4,2.29,2,2.71,7.78-.32,9.37-1.27.67-3.14.88-3.45,2.28s1,2.23,1.84,3.2a6,6,0,0,1-1.84,9c-.73.35-1.62.64-1.89,1.4a2.77,2.77,0,0,0,.17,1.69,8.66,8.66,0,0,1,.29,3.24,1.45,1.45,0,0,1-.39,1,1.52,1.52,0,0,1-1,.27c-4.38.2-6.49-1.35-9.16,2.46a3,3,0,0,1-.91,1,2.77,2.77,0,0,1-1.2.3c-3,.25-5-1.62-7.72-2-3.82-.48-4.63,1.49-8,3.06C186.64,243.2,184.08,241.67,183.09,238.07Z" fill="#ececec"/>
<path d="M156.92,255.7a15.64,15.64,0,0,1-.47-3.12c-.39-6.49-6.58-5.46-11.84-6.34-4.11-.69,6.78-11.07-1.51-14.42-1.54-.63-3.22-1.33-4-2.79-1-1.94,0-4.48,1.8-5.75a11.12,11.12,0,0,1,6.3-1.58c1.35-1.64.25-4.12-1.06-5.8s-2.91-3.59-2.42-5.66c.75-3.12,5.12-3.24,8.28-2.63,1.16-1.89,1.14-4.25,1.71-6.4s2.27-4.4,4.47-4.13,3.35,2.6,5.38,3.08c2.37.56,4.42-1.53,6.27-3.1s5.1-2.55,6.38-.48c.76,1.23.3,3,1.1,4.17,1.37,2.12,4.64.81,6.67-.69s5.26-2.85,6.68-.78a8.53,8.53,0,0,1,.79,2.17c1,2.77,4,4.15,6.28,5.93s4.18,5.3,2.21,7.47c-1,1.07-2.69,1.5-3.17,2.86-.6,1.71,1.14,3.23,2.51,4.4,2.29,1.95,2.71,7.78-.32,9.38-1.27.66-3.14.87-3.45,2.27s1,2.23,1.84,3.2a6,6,0,0,1-1.84,9c-.73.35-1.62.64-1.89,1.4a2.77,2.77,0,0,0,.17,1.69,8.69,8.69,0,0,1,.29,3.25,1.45,1.45,0,0,1-.39,1,1.46,1.46,0,0,1-1,.27c-4.38.2-6.49-1.35-9.16,2.46a3.12,3.12,0,0,1-.91,1,2.91,2.91,0,0,1-1.2.3c-3,.24-5-1.63-7.72-2-3.82-.49-4.63,1.48-8,3.06C160.47,260.83,157.91,259.3,156.92,255.7Z" fill="#ececec"/>
<path d="M164.85,278s11,15.48,14.72,20.38,22.65,35.48,25.21,55.7c.28,2.16.55,4,.81,5.64-8.12,53.57-6.84,151.59-6.56,168.37h25.72c.24-18.92,2.42-191.89,3.23-197.18.85-5.58,11.6-26.86,28.2-35.61s31-37.67,31-37.67h-5.29s-9.82,17.73-23.78,27.55a54.22,54.22,0,0,1-6.28,3.72c.5-16-5.56-31.27-5.56-31.27l-2.85,2.64c3.86,15.79,3.35,25.91,2.18,31.73a57,57,0,0,0-14.44,9.66c-14.48-18.84-22.63-61.91-22.63-61.91l-3.71,2a220.45,220.45,0,0,0,4.79,26.42c2.72,11.15,10.7,32.14,14.42,41.67a98.88,98.88,0,0,0-10.94,20.54,8.74,8.74,0,0,0-1.4-1.67c-9.43-8.53-27.17-48.84-27.17-48.84-4.29-9.37,2.26-34,2.26-34h-5l-2.22,21.51-12.45-13.59-2.27,1.89,13.21,17,6.8,21.52-17.74-19.63Z" fill="#e7e7e7"/>
<path d="M422.74,379.89a10.56,10.56,0,0,0,.32-2.17c.27-4.49,4.56-3.78,8.21-4.39,2.85-.48-4.7-7.68,1.05-10a5.1,5.1,0,0,0,2.78-1.94,3.26,3.26,0,0,0-1.26-4,7.72,7.72,0,0,0-4.36-1.1c-.94-1.14-.18-2.85.73-4s2-2.49,1.68-3.92c-.52-2.17-3.55-2.25-5.74-1.83-.81-1.31-.79-2.94-1.19-4.43s-1.57-3.05-3.1-2.87-2.32,1.8-3.73,2.14c-1.64.38-3.06-1.07-4.34-2.15s-3.54-1.77-4.43-.34c-.53.86-.21,2.06-.76,2.9-1,1.46-3.22.55-4.63-.48s-3.64-2-4.63-.54a6.41,6.41,0,0,0-.55,1.5c-.66,1.92-2.74,2.88-4.35,4.11s-2.9,3.68-1.53,5.18c.67.74,1.86,1,2.2,2,.41,1.18-.79,2.24-1.75,3.05-1.58,1.35-1.87,5.39.23,6.5.88.46,2.17.6,2.39,1.58s-.69,1.54-1.28,2.21a4.18,4.18,0,0,0,1.28,6.22c.51.24,1.12.44,1.31,1a1.94,1.94,0,0,1-.12,1.18,6.31,6.31,0,0,0-.2,2.25,1,1,0,0,0,.27.71,1.09,1.09,0,0,0,.67.18c3,.14,4.49-.94,6.35,1.7a1.93,1.93,0,0,0,.63.67,1.86,1.86,0,0,0,.83.21c2.09.17,3.45-1.13,5.36-1.37,2.64-.34,3.2,1,5.53,2.12C420.27,383.44,422.05,382.38,422.74,379.89Z" fill="#ececec"/>
<path d="M387.81,376.11a11,11,0,0,0,.33-2.16c.26-4.5,4.55-3.79,8.2-4.4,2.85-.47-4.7-7.67,1.05-10a5.08,5.08,0,0,0,2.78-1.93,3.27,3.27,0,0,0-1.26-4,7.71,7.71,0,0,0-4.36-1.09c-.94-1.14-.18-2.86.73-4s2-2.49,1.68-3.93c-.52-2.16-3.55-2.24-5.74-1.82-.81-1.31-.79-2.95-1.19-4.44s-1.57-3.05-3.1-2.86-2.32,1.8-3.73,2.13c-1.64.39-3.06-1.06-4.34-2.15s-3.54-1.76-4.42-.33c-.54.86-.22,2.05-.77,2.9-.95,1.46-3.22.55-4.62-.49s-3.65-2-4.64-.53a6.25,6.25,0,0,0-.55,1.5c-.66,1.92-2.74,2.87-4.35,4.11s-2.9,3.68-1.53,5.18c.67.74,1.86,1,2.2,2,.42,1.18-.79,2.24-1.75,3.05-1.58,1.35-1.87,5.4.23,6.5.88.47,2.17.61,2.39,1.58s-.69,1.55-1.28,2.22a4.17,4.17,0,0,0,1.28,6.21c.51.25,1.13.44,1.31,1a1.9,1.9,0,0,1-.12,1.17,6.33,6.33,0,0,0-.2,2.25,1,1,0,0,0,.27.71,1.1,1.1,0,0,0,.67.19c3,.13,4.5-.94,6.35,1.7a2.12,2.12,0,0,0,.63.67,2,2,0,0,0,.84.21c2.08.17,3.44-1.13,5.35-1.37,2.64-.34,3.2,1,5.53,2.12C385.34,379.67,387.12,378.61,387.81,376.11Z" fill="#ececec"/>
<path d="M384.44,353.87a10.53,10.53,0,0,0,.33-2.17c.27-4.49,4.56-3.78,8.21-4.39,2.85-.48-4.7-7.68,1-10a5.06,5.06,0,0,0,2.77-1.94,3.26,3.26,0,0,0-1.25-4,7.75,7.75,0,0,0-4.37-1.1c-.93-1.14-.17-2.85.74-4s2-2.49,1.67-3.92c-.52-2.17-3.55-2.25-5.74-1.83-.8-1.3-.79-2.94-1.18-4.43s-1.58-3-3.11-2.87-2.31,1.81-3.73,2.14c-1.64.38-3.05-1.07-4.34-2.15s-3.54-1.77-4.42-.34c-.53.86-.21,2.06-.76,2.9-1,1.46-3.22.56-4.63-.48s-3.65-2-4.64-.54a6,6,0,0,0-.54,1.5c-.67,1.92-2.74,2.88-4.36,4.11s-2.89,3.68-1.53,5.18c.68.74,1.86,1,2.2,2,.42,1.18-.79,2.24-1.74,3.05-1.59,1.35-1.88,5.39.22,6.5.88.46,2.18.61,2.39,1.58s-.69,1.54-1.27,2.21a4.18,4.18,0,0,0,1.28,6.22c.5.24,1.12.44,1.31,1a2.07,2.07,0,0,1-.12,1.17,6.12,6.12,0,0,0-.21,2.25,1.05,1.05,0,0,0,.28.71,1.08,1.08,0,0,0,.66.18c3,.14,4.5-.93,6.35,1.7a2.16,2.16,0,0,0,.63.68,2,2,0,0,0,.84.2c2.08.18,3.45-1.13,5.35-1.37,2.65-.33,3.21,1,5.53,2.12C382,357.43,383.75,356.36,384.44,353.87Z" fill="#ececec"/>
<path d="M361.43,365a10.53,10.53,0,0,0,.33-2.17c.27-4.49,4.56-3.78,8.21-4.39,2.85-.48-4.7-7.68,1-10a5,5,0,0,0,2.77-1.94,3.26,3.26,0,0,0-1.25-4,7.73,7.73,0,0,0-4.37-1.1c-.93-1.14-.17-2.85.74-4s2-2.49,1.67-3.92c-.52-2.17-3.55-2.25-5.74-1.83-.8-1.31-.79-2.94-1.18-4.43s-1.58-3.05-3.1-2.87-2.32,1.81-3.74,2.14c-1.63.38-3.05-1.07-4.34-2.15s-3.53-1.77-4.42-.34c-.53.86-.21,2.06-.76,2.9-1,1.46-3.22.56-4.63-.48s-3.65-2-4.64-.54a6,6,0,0,0-.54,1.5c-.67,1.92-2.74,2.88-4.36,4.11s-2.89,3.68-1.53,5.18c.68.74,1.87,1,2.2,2,.42,1.18-.79,2.24-1.74,3.05-1.59,1.35-1.88,5.39.22,6.5.88.46,2.18.61,2.39,1.58s-.68,1.54-1.27,2.21a4.18,4.18,0,0,0,1.28,6.22c.5.24,1.12.44,1.31,1a2.07,2.07,0,0,1-.12,1.17,6.12,6.12,0,0,0-.21,2.25,1.05,1.05,0,0,0,.28.71,1.08,1.08,0,0,0,.66.18c3,.14,4.5-.93,6.35,1.7a2.28,2.28,0,0,0,.63.68,2,2,0,0,0,.84.2c2.08.18,3.45-1.13,5.35-1.37,2.65-.34,3.21,1,5.54,2.12C359,368.51,360.74,367.44,361.43,365Z" fill="#ececec"/>
<path d="M338.18,359.83a11.14,11.14,0,0,0,.33-2.17c.26-4.49,4.55-3.78,8.2-4.39,2.85-.47-4.7-7.68,1.05-10a5.08,5.08,0,0,0,2.78-1.93,3.27,3.27,0,0,0-1.26-4,7.63,7.63,0,0,0-4.36-1.09c-.94-1.14-.18-2.86.73-4s2-2.49,1.68-3.93c-.52-2.17-3.55-2.24-5.74-1.82-.81-1.31-.79-2.95-1.19-4.44s-1.57-3.05-3.1-2.86-2.32,1.8-3.73,2.13c-1.64.39-3.06-1.06-4.34-2.15s-3.54-1.77-4.42-.33c-.53.85-.22,2.05-.77,2.89-1,1.47-3.22.56-4.62-.48s-3.65-2-4.64-.54a6.32,6.32,0,0,0-.55,1.51c-.66,1.92-2.74,2.87-4.35,4.1s-2.9,3.68-1.53,5.19c.67.74,1.86,1,2.2,2,.42,1.18-.79,2.24-1.74,3.05-1.59,1.35-1.88,5.4.22,6.5.88.46,2.17.61,2.39,1.58s-.69,1.55-1.28,2.22a4.18,4.18,0,0,0,1.28,6.21c.51.24,1.13.44,1.31,1a1.9,1.9,0,0,1-.12,1.17,6.33,6.33,0,0,0-.2,2.25,1,1,0,0,0,.27.71,1.1,1.1,0,0,0,.67.19c3,.13,4.5-.94,6.35,1.7a2.12,2.12,0,0,0,.63.67,2.17,2.17,0,0,0,.84.21c2.08.17,3.44-1.13,5.35-1.38,2.64-.33,3.2,1,5.53,2.13C335.71,363.39,337.49,362.33,338.18,359.83Z" fill="#ececec"/>
<path d="M337.87,384.71a7.78,7.78,0,0,0,.26-1.71c.21-3.54,3.59-3,6.46-3.46,2.25-.37-3.7-6,.83-7.87a4,4,0,0,0,2.19-1.53,2.59,2.59,0,0,0-1-3.14,6.17,6.17,0,0,0-3.44-.86c-.74-.89-.13-2.25.58-3.16s1.59-2,1.32-3.09c-.41-1.71-2.8-1.77-4.52-1.44-.64-1-.62-2.32-.93-3.49s-1.24-2.4-2.45-2.26-1.82,1.42-2.93,1.68c-1.29.31-2.41-.83-3.42-1.69s-2.79-1.39-3.48-.26c-.42.67-.17,1.61-.61,2.28-.75,1.15-2.53.43-3.64-.38s-2.87-1.56-3.65-.43a4.83,4.83,0,0,0-.43,1.19c-.52,1.51-2.16,2.26-3.43,3.23s-2.28,2.9-1.2,4.08c.53.59,1.46.82,1.73,1.57.33.93-.62,1.76-1.37,2.4-1.25,1.06-1.48,4.25.17,5.12.7.36,1.71.47,1.89,1.24s-.55,1.22-1,1.74a3.29,3.29,0,0,0,1,4.9c.39.19.88.34,1,.76a1.55,1.55,0,0,1-.1.92,5.09,5.09,0,0,0-.16,1.78.82.82,0,0,0,.22.55.86.86,0,0,0,.52.15c2.39.11,3.54-.74,5,1.34a1.81,1.81,0,0,0,.5.53,1.64,1.64,0,0,0,.66.16c1.64.14,2.71-.89,4.21-1.08,2.09-.27,2.53.81,4.36,1.67C335.93,387.51,337.33,386.67,337.87,384.71Z" fill="#ececec"/>
<path d="M324.84,376.11a10.32,10.32,0,0,0,.33-2.16c.27-4.5,4.56-3.79,8.21-4.4,2.85-.47-4.7-7.67,1.05-10a5,5,0,0,0,2.77-1.93,3.27,3.27,0,0,0-1.25-4,7.71,7.71,0,0,0-4.36-1.09c-.94-1.14-.18-2.86.73-4s2-2.49,1.67-3.93c-.52-2.16-3.54-2.24-5.73-1.82-.81-1.31-.8-2.95-1.19-4.44s-1.57-3.05-3.1-2.86-2.32,1.8-3.73,2.13c-1.64.39-3.06-1.06-4.35-2.15s-3.53-1.76-4.42-.33c-.53.86-.21,2.05-.76,2.9-1,1.46-3.22.55-4.63-.49s-3.64-2-4.63-.53a5.85,5.85,0,0,0-.55,1.5c-.66,1.92-2.74,2.87-4.36,4.11s-2.89,3.68-1.52,5.18c.67.74,1.86,1,2.19,2,.42,1.18-.78,2.24-1.74,3.05-1.59,1.35-1.87,5.4.23,6.5.88.47,2.17.61,2.39,1.58s-.69,1.55-1.28,2.22a4.17,4.17,0,0,0,1.28,6.21c.5.25,1.12.44,1.31,1a2,2,0,0,1-.12,1.17,5.91,5.91,0,0,0-.2,2.25,1,1,0,0,0,.27.71,1.1,1.1,0,0,0,.67.19c3,.13,4.49-.94,6.34,1.7a2.37,2.37,0,0,0,.63.67,2,2,0,0,0,.84.21c2.09.17,3.45-1.13,5.35-1.37,2.65-.34,3.21,1,5.54,2.12C322.38,379.67,324.16,378.61,324.84,376.11Z" fill="#ececec"/>
<path d="M361.43,337.59a10.53,10.53,0,0,0,.33-2.17c.27-4.49,4.56-3.78,8.21-4.39,2.85-.48-4.7-7.68,1-10a5,5,0,0,0,2.77-1.94,3.26,3.26,0,0,0-1.25-4,7.73,7.73,0,0,0-4.37-1.1c-.93-1.14-.17-2.85.74-4s2-2.49,1.67-3.92c-.52-2.17-3.55-2.25-5.74-1.83-.8-1.31-.79-2.94-1.18-4.43s-1.58-3.05-3.1-2.87-2.32,1.8-3.74,2.14c-1.63.38-3.05-1.07-4.34-2.15s-3.53-1.77-4.42-.34c-.53.86-.21,2.05-.76,2.9-1,1.46-3.22.55-4.63-.48s-3.65-2-4.64-.54a6,6,0,0,0-.54,1.5c-.67,1.92-2.74,2.88-4.36,4.11s-2.89,3.68-1.53,5.18c.68.74,1.87,1,2.2,2,.42,1.18-.79,2.24-1.74,3.05-1.59,1.35-1.88,5.39.22,6.5.88.46,2.18.6,2.39,1.58s-.68,1.54-1.27,2.21a4.18,4.18,0,0,0,1.28,6.22c.5.24,1.12.44,1.31,1a2.1,2.1,0,0,1-.12,1.18,6.1,6.1,0,0,0-.21,2.25,1,1,0,0,0,.28.7,1,1,0,0,0,.66.19c3,.14,4.5-.94,6.35,1.7a2.13,2.13,0,0,0,.63.67,1.87,1.87,0,0,0,.84.21c2.08.17,3.45-1.13,5.35-1.37,2.65-.34,3.21,1,5.54,2.12C359,341.14,360.74,340.08,361.43,337.59Z" fill="#ececec"/>
<path d="M391.31,339.11a10.36,10.36,0,0,0,.32-2.16c.27-4.5,4.56-3.78,8.21-4.39,2.85-.48-4.7-7.68,1.05-10a5.08,5.08,0,0,0,2.78-1.93,3.27,3.27,0,0,0-1.26-4,7.71,7.71,0,0,0-4.36-1.09c-.94-1.14-.18-2.86.73-4s2-2.49,1.68-3.93c-.52-2.16-3.55-2.24-5.74-1.82-.81-1.31-.79-2.95-1.19-4.44s-1.57-3.05-3.1-2.86-2.32,1.8-3.73,2.13c-1.64.39-3.06-1.06-4.35-2.15s-3.53-1.76-4.42-.33c-.53.86-.21,2.05-.76,2.9-.95,1.46-3.22.55-4.63-.49s-3.64-2-4.63-.53a6.25,6.25,0,0,0-.55,1.5c-.66,1.92-2.74,2.88-4.35,4.11s-2.9,3.68-1.53,5.18c.67.74,1.86,1,2.19,2,.42,1.18-.78,2.24-1.74,3.05-1.59,1.36-1.87,5.4.23,6.5.88.47,2.17.61,2.39,1.58s-.69,1.55-1.28,2.22a4.17,4.17,0,0,0,1.28,6.21c.5.25,1.12.44,1.31,1a2,2,0,0,1-.12,1.18,6.29,6.29,0,0,0-.2,2.25.81.81,0,0,0,.94.89c3,.13,4.49-.94,6.35,1.7a2,2,0,0,0,.63.67,1.82,1.82,0,0,0,.83.21c2.09.17,3.45-1.13,5.36-1.37,2.64-.34,3.2,1,5.53,2.12C388.84,342.67,390.62,341.61,391.31,339.11Z" fill="#ececec"/>
<path d="M409.45,351.34a10.42,10.42,0,0,0,.33-2.17c.27-4.49,4.56-3.78,8.21-4.39,2.85-.47-4.7-7.68,1.05-10a5,5,0,0,0,2.77-1.94,3.26,3.26,0,0,0-1.25-4,7.73,7.73,0,0,0-4.37-1.1c-.93-1.14-.17-2.85.74-4s2-2.48,1.67-3.92c-.52-2.17-3.55-2.25-5.74-1.82-.8-1.31-.79-2.95-1.18-4.44s-1.58-3.05-3.1-2.86-2.32,1.8-3.74,2.13c-1.63.39-3-1.06-4.34-2.15s-3.53-1.77-4.42-.34c-.53.86-.21,2.06-.76,2.9-1,1.47-3.22.56-4.63-.48s-3.65-2-4.64-.54a5.9,5.9,0,0,0-.54,1.51c-.67,1.91-2.74,2.87-4.36,4.1s-2.89,3.68-1.53,5.18c.68.75,1.87,1.05,2.2,2,.42,1.18-.79,2.24-1.74,3.05-1.59,1.35-1.88,5.39.22,6.5.88.46,2.18.61,2.39,1.58s-.69,1.55-1.27,2.22a4.17,4.17,0,0,0,1.28,6.21c.5.24,1.12.44,1.31,1a2.07,2.07,0,0,1-.12,1.17,6.12,6.12,0,0,0-.21,2.25,1.05,1.05,0,0,0,.28.71,1.16,1.16,0,0,0,.66.19c3,.13,4.5-.94,6.35,1.7a2.37,2.37,0,0,0,.63.67,2.17,2.17,0,0,0,.84.21c2.08.17,3.45-1.13,5.35-1.38,2.65-.33,3.21,1,5.53,2.12C407,354.9,408.76,353.84,409.45,351.34Z" fill="#ececec"/>
<path d="M404,366.79s-7.59,10.73-10.2,14.13-15.71,24.6-17.49,38.62c-.19,1.5-.37,2.78-.56,3.91,5.63,37.15,4.75,105.11,4.55,116.74H362.42c-.16-13.12-1.68-133.05-2.24-136.71-.59-3.88-8-18.63-19.56-24.7s-21.46-26.12-21.46-26.12h3.67s6.8,12.3,16.49,19.1a37.76,37.76,0,0,0,4.35,2.59c-.34-11.09,3.85-21.69,3.85-21.69l2,1.83c-2.67,11-2.32,18-1.51,22a40,40,0,0,1,10,6.7c10-13.06,15.69-42.92,15.69-42.92l2.57,1.4A151,151,0,0,1,372.94,360c-1.88,7.73-7.42,22.28-10,28.89a68.66,68.66,0,0,1,7.58,14.24,6,6,0,0,1,1-1.16c6.54-5.91,18.84-33.86,18.84-33.86,3-6.5-1.57-23.55-1.57-23.55h3.44l1.54,14.91,8.63-9.42,1.57,1.31-9.16,11.78-4.71,14.92,12.3-13.61Z" fill="#e7e7e7"/>
<path d="M346.69,575.92c1.1-4.14,6.12-26-8.18-30.71-15.81-5.22-25.19-17.46-24.66-31.31s-16.11-27.33-28.59-14.35-10.82-10-27.46-15.55-30.75,7.95-26.19,20.32-11.86,20.1-31.53,9.58-41.3,8.62-37.13,23.59.75,16.65-11.69,11.65C139,544.21,117.14,558,124.1,575.92Z" fill="#ececec"/>
<path d="M435.32,575.92H316.73c-2.93-5.77,1.7-13.51,6.79-14.53,5.77-1.15,11.57-11.3,11.84-17.77s10.66-26.34,26.81-14.06,11.25,1.81,22.93-1.64,19.06,6.47,13.93,13.91c0,0,11.74-2.94,16.58,8s0,17.77,0,17.77S432.21,567.14,435.32,575.92Z" fill="#ececec"/>
<ellipse id="a539b9c7-d3bb-4f2e-8c72-1ecea7a5bfa2" data-name="&lt;Path&gt;" cx="432.88" cy="632.64" rx="322.66" ry="18.84" fill="#f5f5f5"/>
<rect x="471.77" y="117.78" width="288.9" height="519.63" rx="10.4" fill="#2f2e41" data-secondary="true"/>
<path d="M750.93,135.18V619.06a7.08,7.08,0,0,1-7.18,7.08H487.94a6.34,6.34,0,0,1-6.42-6.49v-485a5.72,5.72,0,0,1,5.5-5.94h64a4.5,4.5,0,0,1,4.12,2.88l2.65,6.52a4.5,4.5,0,0,0,4.12,2.85H670.73a4.45,4.45,0,0,0,4.12-2.8l2.65-6.55a4.52,4.52,0,0,1,4.12-2.9h63A6.46,6.46,0,0,1,750.93,135.18Z" opacity="0.2"/>
<rect x="481.52" y="158.89" width="269.4" height="415.2" fill="#fff" style="isolation:isolate"/>
<g style="isolation:isolate">
<rect x="511.21" y="143.73" width="3.33" height="4.44" transform="translate(1025.75 291.89) rotate(180)" fill="#fff" opacity="0.6" style="isolation:isolate"/>
<rect x="505.79" y="142.25" width="3.33" height="5.92" transform="translate(1014.91 290.41) rotate(180)" fill="#fff" opacity="0.6" style="isolation:isolate"/>
<rect x="500.37" y="140.77" width="3.33" height="7.4" transform="translate(1004.06 288.93) rotate(180)" fill="#fff" opacity="0.6" style="isolation:isolate"/>
<rect x="494.94" y="139.29" width="3.33" height="8.88" transform="translate(993.22 287.45) rotate(180)" fill="#fff" opacity="0.6" style="isolation:isolate"/>
<rect x="718.46" y="142.11" width="1.97" height="4.44" fill="#fff" opacity="0.6" style="isolation:isolate"/>
<rect x="721.79" y="140.49" width="15.71" height="7.67" transform="translate(1459.3 288.65) rotate(180)" fill="#fff" opacity="0.6" style="isolation:isolate"/>
</g>
<polygon points="649.08 237.5 664.75 223.17 664.07 238.17 649.08 237.5" fill="#d1d3d4"/>
<polygon points="583.37 311.95 567.71 326.28 568.38 311.28 583.37 311.95" fill="#d1d3d4"/>
<path d="M553.81,291.29a64.58,64.58,0,0,1,107.4-62.91l-6.39,6.6a55.4,55.4,0,0,0-92.13,54Z" fill="#d1d3d4"/>
<path d="M571.42,321.23l6.36-6.62a55.4,55.4,0,0,0,92-54.1l8.88-2.35a64.58,64.58,0,0,1-107.22,63.07Z" fill="#d1d3d4"/>
<path d="M707,384H525.42a9.62,9.62,0,0,0,0,19.24H707A9.62,9.62,0,0,0,707,384Z" fill="#e6e7e8"/>
<path d="M590.4,420.07l.32-.63a3.78,3.78,0,0,0,2.55.93c1.44,0,2.07-.6,2.07-1.36,0-2.12-4.75-.82-4.75-3.67,0-1.13.88-2.11,2.84-2.11a4.35,4.35,0,0,1,2.39.68l-.27.65a4,4,0,0,0-2.12-.64c-1.41,0-2,.63-2,1.4,0,2.11,4.75.84,4.75,3.64,0,1.14-.9,2.11-2.87,2.11A4.21,4.21,0,0,1,590.4,420.07Z" fill="#d1d3d4"/>
<path d="M602.51,415.21l-2.9,6.49c-.48,1.13-1.1,1.49-1.92,1.49a2,2,0,0,1-1.41-.52l.36-.59a1.44,1.44,0,0,0,1.06.44c.52,0,.87-.24,1.2-1l.25-.56-2.59-5.78h.82l2.18,4.92,2.18-4.92Z" fill="#d1d3d4"/>
<path d="M609,417.64V421h-.78v-3.28a1.62,1.62,0,0,0-1.74-1.85,1.9,1.9,0,0,0-2,2.09v3h-.78v-5.79h.75v1.07a2.42,2.42,0,0,1,2.2-1.12A2.22,2.22,0,0,1,609,417.64Z" fill="#d1d3d4"/>
<path d="M610.52,418.11a2.85,2.85,0,0,1,3-2.95,2.53,2.53,0,0,1,2.27,1.15l-.58.4a2,2,0,0,0-1.69-.86,2.26,2.26,0,0,0,0,4.51,2,2,0,0,0,1.69-.84l.58.39a2.55,2.55,0,0,1-2.27,1.15A2.85,2.85,0,0,1,610.52,418.11Z" fill="#d1d3d4"/>
<path d="M625.6,418.85c0,1.37-1.16,2.22-3,2.22s-3-.85-3-2.22a1.92,1.92,0,0,1,1.49-1.89,1.74,1.74,0,0,1-1.21-1.7c0-1.25,1.06-2,2.69-2s2.73.78,2.73,2a1.74,1.74,0,0,1-1.24,1.7A1.94,1.94,0,0,1,625.6,418.85Zm-.81,0c0-.94-.82-1.54-2.19-1.54s-2.17.6-2.17,1.54.81,1.56,2.17,1.56S624.79,419.8,624.79,418.84Zm-2.19-2.17c1.21,0,1.92-.54,1.92-1.37s-.76-1.4-1.92-1.4-1.9.53-1.9,1.39S621.4,416.67,622.6,416.67Z" fill="#d1d3d4"/>
<path d="M626.71,417.15c0-2.46,1.28-3.92,3.07-3.92s3.08,1.46,3.08,3.92-1.3,3.92-3.08,3.92S626.71,419.6,626.71,417.15Zm5.34,0c0-2.06-.93-3.2-2.27-3.2s-2.27,1.14-2.27,3.2.93,3.19,2.27,3.19S632.05,419.21,632.05,417.15Z" fill="#d1d3d4"/>
<path d="M633.89,415.33c0-1.26.71-2.09,1.74-2.09s1.74.82,1.74,2.09-.71,2.09-1.74,2.09S633.89,416.59,633.89,415.33Zm2.93,0c0-1-.47-1.6-1.19-1.6s-1.19.61-1.19,1.6.47,1.6,1.19,1.6S636.82,416.33,636.82,415.33Zm3.48-2H641L635.69,421H635ZM638.62,419c0-1.25.71-2.09,1.74-2.09s1.74.84,1.74,2.09-.71,2.1-1.74,2.1S638.62,420.22,638.62,419Zm2.93,0c0-1-.46-1.59-1.19-1.59s-1.19.59-1.19,1.59.47,1.6,1.19,1.6S641.55,420,641.55,419Z" fill="#d1d3d4"/>
<path d="M675.11,385.71H525.6a7.92,7.92,0,0,0,0,15.84H675.11a7.92,7.92,0,0,0,0-15.84Z" fill="#d1d3d4"/>
<path d="M571.12,488v42.47a4.8,4.8,0,0,1-4.09,4.75,3.39,3.39,0,0,1-.72.06H511.74a4.8,4.8,0,0,1-4.8-4.81V488a4.51,4.51,0,0,1,.49-2.1,4.76,4.76,0,0,1,4.31-2.72h21.39a4.86,4.86,0,0,0,2.83-.92,4.76,4.76,0,0,0,1.74-2.39,4.82,4.82,0,0,1,4.58-3.32h11.39a4.79,4.79,0,0,1,4.57,3.32,4.83,4.83,0,0,0,4.58,3.31h3.49A4.81,4.81,0,0,1,571.12,488Z" fill="#d1d3d4"/>
<path d="M567,490v45.22l-.06.06H511.74a4.8,4.8,0,0,1-4.8-4.81V488a4.51,4.51,0,0,1,.49-2.1h55.5A4.11,4.11,0,0,1,567,490Z" fill="#fff" opacity="0.3" style="isolation:isolate"/>
<path d="M648.32,488v42.47a4.8,4.8,0,0,1-4.09,4.75,3.44,3.44,0,0,1-.72.06H588.94a4.81,4.81,0,0,1-4.81-4.81V488a4.64,4.64,0,0,1,.49-2.1,4.79,4.79,0,0,1,4.32-2.72h21.38a4.89,4.89,0,0,0,2.84-.92,4.76,4.76,0,0,0,1.74-2.39,4.82,4.82,0,0,1,4.58-3.32h11.39a4.79,4.79,0,0,1,4.57,3.32,4.83,4.83,0,0,0,4.58,3.31h3.49A4.81,4.81,0,0,1,648.32,488Z" fill="#d1d3d4"/>
<path d="M644.23,490v45.22l-.06.06H588.94a4.81,4.81,0,0,1-4.81-4.81V488a4.64,4.64,0,0,1,.49-2.1h55.51A4.11,4.11,0,0,1,644.23,490Z" fill="#fff" opacity="0.3" style="isolation:isolate"/>
<path d="M725.51,488v42.47a4.79,4.79,0,0,1-4.08,4.75,3.44,3.44,0,0,1-.72.06H666.14a4.81,4.81,0,0,1-4.81-4.81V488a4.64,4.64,0,0,1,.49-2.1,4.79,4.79,0,0,1,4.32-2.72h21.38a4.86,4.86,0,0,0,2.83-.92,4.72,4.72,0,0,0,1.75-2.39,4.81,4.81,0,0,1,4.58-3.32h11.38a4.79,4.79,0,0,1,4.58,3.32,4.82,4.82,0,0,0,4.58,3.31h3.49A4.81,4.81,0,0,1,725.51,488Z" fill="#d1d3d4"/>
<path d="M721.43,490v45.22l-.06.06H666.14a4.81,4.81,0,0,1-4.81-4.81V488a4.64,4.64,0,0,1,.49-2.1h55.5A4.11,4.11,0,0,1,721.43,490Z" fill="#fff" opacity="0.3" style="isolation:isolate"/>
<g style="isolation:isolate">
<path d="M729.91,592.43h-23a1.66,1.66,0,1,1,0-3.32h23a1.66,1.66,0,1,1,0,3.32Z" fill="#fff"/>
<path d="M729.91,600.85h-23a1.66,1.66,0,1,1,0-3.32h23a1.66,1.66,0,1,1,0,3.32Z" fill="#fff"/>
<path d="M729.91,609.27h-23a1.67,1.67,0,1,1,0-3.33h23a1.67,1.67,0,0,1,0,3.33Z" fill="#fff"/>
<path d="M626.58,600.85h-23a1.66,1.66,0,0,1,0-3.32h23a1.66,1.66,0,0,1,0,3.32Z" fill="#fff"/>
<path d="M615.08,612.36a1.67,1.67,0,0,1-1.67-1.67v-23a1.67,1.67,0,0,1,3.33,0v23A1.67,1.67,0,0,1,615.08,612.36Z" fill="#fff"/>
<path d="M521,610.06H502.54a1.66,1.66,0,0,1-1.66-1.66V590a1.66,1.66,0,0,1,1.66-1.66H521a1.66,1.66,0,0,1,1.67,1.66V608.4A1.66,1.66,0,0,1,521,610.06Zm-16.74-3.33h15.08V591.65H504.21Z" fill="#fff"/>
</g>
<rect x="111.5" y="78.52" width="243.91" height="170.39" rx="3.28" transform="translate(466.91 327.43) rotate(180)" fill="#2f2e41" data-secondary="true"/>
<rect x="111.5" y="92.27" width="243.91" height="146.63" transform="translate(466.91 331.18) rotate(180)" fill="#fff" style="isolation:isolate"/>
<polygon points="289.59 128.62 298.32 120.64 297.95 129 289.59 128.62" fill="#d1d3d4"/>
<polygon points="252.97 170.13 244.24 178.11 244.61 169.75 252.97 170.13" fill="#d1d3d4"/>
<path d="M236.49,158.61a36,36,0,0,1,59.86-35.06l-3.56,3.67a30.87,30.87,0,0,0-51.35,30.07Z" fill="#d1d3d4"/>
<path d="M246.31,175.3l3.54-3.69a30.88,30.88,0,0,0,51.27-30.15l4.95-1.32a36,36,0,0,1-59.76,35.16Z" fill="#d1d3d4"/>
<path d="M316,200.75H226.56a4.74,4.74,0,0,0,0,9.47H316a4.74,4.74,0,0,0,0-9.47Z" fill="#e6e7e8"/>
<path d="M300.28,201.59H226.65a3.9,3.9,0,0,0,0,7.8h73.63a3.9,3.9,0,1,0,0-7.8Z" fill="#d1d3d4"/>
<rect x="116.45" y="96.07" width="68.9" height="139.09" fill="#e6e7e8"/>
<path d="M169.57,114.53v24.39a2.74,2.74,0,0,1-2.34,2.72,1.87,1.87,0,0,1-.42,0H135.48a2.76,2.76,0,0,1-2.76-2.76V114.53a2.56,2.56,0,0,1,.29-1.2,2.75,2.75,0,0,1,2.47-1.57h12.28a2.82,2.82,0,0,0,1.63-.52,2.79,2.79,0,0,0,1-1.37A2.76,2.76,0,0,1,153,108h6.54a2.75,2.75,0,0,1,2.62,1.91,2.77,2.77,0,0,0,2.63,1.89h2A2.76,2.76,0,0,1,169.57,114.53Z" fill="#d1d3d4"/>
<path d="M167.23,115.68v26l0,0H135.48a2.76,2.76,0,0,1-2.76-2.76V114.53a2.56,2.56,0,0,1,.29-1.2h31.86A2.36,2.36,0,0,1,167.23,115.68Z" fill="#fff" opacity="0.3" style="isolation:isolate"/>
<path d="M169.57,154.86v24.39a2.75,2.75,0,0,1-2.76,2.76H135.48a2.76,2.76,0,0,1-2.76-2.76V154.86a2.56,2.56,0,0,1,.29-1.2,2.74,2.74,0,0,1,2.47-1.56h12.28a2.83,2.83,0,0,0,1.63-.53,2.79,2.79,0,0,0,1-1.37,2.77,2.77,0,0,1,2.63-1.91h6.54a2.76,2.76,0,0,1,2.62,1.91,2.78,2.78,0,0,0,2.63,1.9h2A2.76,2.76,0,0,1,169.57,154.86Z" fill="#d1d3d4"/>
<path d="M167.23,156v26l0,0H135.48a2.76,2.76,0,0,1-2.76-2.76V154.86a2.56,2.56,0,0,1,.29-1.2h31.86A2.36,2.36,0,0,1,167.23,156Z" fill="#fff" opacity="0.3" style="isolation:isolate"/>
<path d="M169.57,195.2v24.39a2.75,2.75,0,0,1-2.34,2.72,1.89,1.89,0,0,1-.42,0H135.48a2.76,2.76,0,0,1-2.76-2.75V195.2A2.6,2.6,0,0,1,133,194a2.74,2.74,0,0,1,2.47-1.56h12.28a2.77,2.77,0,0,0,2.63-1.9,2.77,2.77,0,0,1,2.63-1.91h6.54a2.76,2.76,0,0,1,2.62,1.91,2.78,2.78,0,0,0,2.63,1.9h2A2.76,2.76,0,0,1,169.57,195.2Z" fill="#d1d3d4"/>
<path d="M167.23,196.35v26l0,0H135.48a2.76,2.76,0,0,1-2.76-2.75V195.2A2.6,2.6,0,0,1,133,194h31.86A2.36,2.36,0,0,1,167.23,196.35Z" fill="#fff" opacity="0.3" style="isolation:isolate"/>
<g style="isolation:isolate">
<path d="M346,86.68a2.63,2.63,0,1,1-2.63-2.63A2.63,2.63,0,0,1,346,86.68Z" fill="#fff" opacity="0.6" style="isolation:isolate"/>
<circle cx="331.8" cy="86.68" r="2.63" fill="#fff" opacity="0.6" style="isolation:isolate"/>
<circle cx="320.29" cy="86.68" r="2.63" fill="#fff" opacity="0.6" style="isolation:isolate"/>
</g>
<path d="M371.53,243.46l-23.12-31.54s-2.62-2.32-4.36-3.52-22.69,3.36-22.37,5.57,3.56,13.9,5.81,12.81,16.11-6.35,16.11-6.35L359,247.67Z" fill="#f9b499"/>
<path d="M396.17,192.07c-8.41,1-24.64,38.5-24.64,38.5l17.11,12.18,13.6-18.09Z" fill="#0071f2" data-primary="true"/>
<path d="M402.25,224.66l-2.13,2.84-11.47,15.24-8.42-6-8.71-6.19s16.23-37.52,24.65-38.49Z" fill="#0071f2" opacity="0.8" style="isolation:isolate" data-primary="true"/>
<path d="M400.12,227.5l-11.47,15.24-8.42-6A49,49,0,0,1,395,209.69Z" opacity="0.2" style="isolation:isolate"/>
<path d="M432.41,180.24s-15.74-1.25-24.27,11.59l5,2.46s4.15-8.71,18.66-9.31Z" fill="#e0e0e0"/>
<path d="M408.32,191.91l4.86,2.37s4-8.42,18-9.25l.4-3.24S417,180.64,408.32,191.91Z" opacity="0.2" style="isolation:isolate"/>
<path d="M461.62,476.87l-.08-16.47a1.19,1.19,0,0,1,.92-1.16l12.06-2.73A2,2,0,0,1,476.9,458a1.65,1.65,0,0,1,.05.44c-.06,5.33-.37,9.21-.34,15.91,0,4.12.51,16.55.54,22.25s-5.59,6.46-6.12,4.13c-2.33-10.44-5.52-18.29-8.54-21.62A3.3,3.3,0,0,1,461.62,476.87Z" fill="#0071f2" data-primary="true"/>
<path d="M388.07,325.19l-5.32,27.91s-42.05,68.06-42,107.36c0,46.94,122.47,19.86,122.47,19.86V458.71S390,465,383.41,457.65c-8-8.91,41.35-77.88,41.35-77.88Z" fill="#2f2e41" data-secondary="true"/>
<path d="M340.72,460.46c0,25.88,37.24,29.26,70.64,27.08a392.75,392.75,0,0,0,49.54-6.74l2.3-.48V458.7l-2.7.22c-8.32.66-34.23,2.54-53.83,2.26-11.65-.17-21.09-1.12-23.27-3.53-3.92-4.38,6-23.26,17.1-41.34h0c11.49-18.69,24.26-36.53,24.26-36.53l-16.08-23.93-20.6-30.66-5.32,27.91S340.7,421.16,340.72,460.46Z" fill="#2f2e41" opacity="0.2" style="isolation:isolate" data-secondary="true"/>
<path d="M406.67,461.18l4.69,26.36a392.75,392.75,0,0,0,49.54-6.74l-.4-21.88C452.18,459.58,426.27,461.46,406.67,461.18Z" opacity="0.2" style="isolation:isolate"/>
<path d="M408.62,385.69s-6.84,16.1-8.12,30.61c11.49-18.69,24.26-36.53,24.26-36.53l-16.08-23.93-8.47-2.75S398.33,364.09,408.62,385.69Z" opacity="0.2" style="isolation:isolate"/>
<path d="M419.56,622H436a1.21,1.21,0,0,1,1.16.93L439.86,635a2,2,0,0,1-1.54,2.37,1.68,1.68,0,0,1-.44,0c-5.33-.08-9.22-.41-15.91-.41-4.12,0-16.56.43-22.25.43s-6.44-5.62-4.11-6.14c10.46-2.28,18.32-5.43,21.67-8.43A3.3,3.3,0,0,1,419.56,622Z" fill="#0071f2" data-primary="true"/>
<path d="M460.9,303.86s4.2,35.89.55,98.53C455.83,498.56,438,626.59,438,626.59l-20.72-3.76s2.64-191.52-.14-244.37c0,0-30.83-25.37-30.83-44,0-6.93,3.88-32.69,3.88-32.69Z" fill="#2f2e41" data-secondary="true"/>
<path d="M460.9,303.86s4.2,35.89.55,98.53C455.83,498.56,438,626.59,438,626.59l-20.72-3.76s2.64-191.52-.14-244.37c0,0-30.83-25.37-30.83-44,0-6.93,3.88-32.69,3.88-32.69Z" fill="#2f2e41" opacity="0.2" style="isolation:isolate" data-secondary="true"/>
<path d="M396.17,192.07s45.78-2.16,79.89,6.45c0,0-12.58,74.07-12,117.19l-78.8-3.24S384.28,236.57,396.17,192.07Z" fill="#0071f2" data-primary="true"/>
<path d="M400.3,199.25c0,4.72,3.07,8.56,6.85,8.56S414,204,414,199.25s-3.06-8.57-6.84-8.57S400.3,194.52,400.3,199.25Z" fill="#e0e0e0"/>
<path d="M401.34,199.25c0,5.77,3.74,10.45,8.36,10.45s8.35-4.68,8.35-10.45-3.74-10.46-8.35-10.46S401.34,193.47,401.34,199.25Z" fill="#bcbec0"/>
<path d="M405,199.25c0,3.49,2.26,6.32,5.05,6.32s5.06-2.83,5.06-6.32-2.27-6.33-5.06-6.33S405,195.75,405,199.25Z" opacity="0.2" style="isolation:isolate"/>
<path d="M448.57,197.54s6.39-11-5.24-11.86l-2.61-5.44s3.63,0,8.61,3.48c4.42,3.07,7.75,9.2,6.56,16.95Z" fill="#e0e0e0"/>
<path d="M448.56,197.55l.45.2c2.48-3.73,2.63-8.76.32-12.07-2.2-3.14-6.13-4.36-8.31-4.81l2.3,4.81C455,186.53,448.56,197.55,448.56,197.55Z" opacity="0.2" style="isolation:isolate"/>
<path d="M449.33,195.08c-6.58,6-22.68,3.77-22.68,3.77s-10-2.76-7.94-5.9c5.92-1,8.79-3.74,10-7.27a17.16,17.16,0,0,0,.6-6.77,34.76,34.76,0,0,0-.5-3.77l19.91-14.75C446.08,170.13,442.89,188,449.33,195.08Z" fill="#f9b499"/>
<path d="M444.09,169.76c-.79,12-10.6,15.25-15.41,15.92a17.16,17.16,0,0,0,.6-6.77Z" fill="#f4a48e" style="isolation:isolate"/>
<path d="M410.67,132.37s-3.32,18.51,6.36,25.92,10.59-27.19,10.59-27.19Z" fill="#2f2e41" data-secondary="true"/>
<path d="M410.67,132.37s-3.32,18.51,6.36,25.92,10.59-27.19,10.59-27.19Z" fill="#2f2e41" opacity="0.3" data-secondary="true"/>
<path d="M445.28,173.83a16.88,16.88,0,0,1-19.55,6,18.79,18.79,0,0,1-10.49-9,17.43,17.43,0,0,1-.84-1.8c-4.56-11.49-5.58-31.4,6.63-38.53A18.3,18.3,0,0,1,448.6,145C449.72,158.34,451,166.11,445.28,173.83Z" fill="#f9b499"/>
<path d="M454,153.23c-1.83,11.6-7.19,18-7.53,18.42,3-5.64,2.45-16.81.59-17.14s-1.77,1.82-1.77,1.82c-4.07-2.7-7.6-10.07-6.17-15.2a4.39,4.39,0,0,0-2.73-5.29l.17-5.94,15.27.41a14.48,14.48,0,0,1,1.68,3.68,14.06,14.06,0,0,1,.45,1.7C455,140,455.11,145.92,454,153.23Z" fill="#2f2e41" data-secondary="true"/>
<path d="M454.13,134.66a5.07,5.07,0,0,1-.2,1,10.16,10.16,0,0,1-2.58,4.71l-15-4.56s-13.18,7.8-22.7,1.9-2.2-17.83-2.2-17.83a12,12,0,0,0,8,2.07c4.58-.55,14.48-5.31,23.7-2.7C450.19,121.26,455.05,128.32,454.13,134.66Z" fill="#2f2e41" data-secondary="true"/>
<path d="M455.94,155a12.71,12.71,0,0,1-6.3,7.4c-4,2-6.83-1.35-6.46-5.56.37-3.74,2.86-9.41,7.21-9.62S457.16,151.08,455.94,155Z" fill="#f9b499"/>
<path d="M440.62,203.37c0,5.77,3.74,10.45,8.35,10.45s8.36-4.68,8.36-10.45-3.74-10.45-8.36-10.45S440.62,197.6,440.62,203.37Z" fill="#bcbec0"/>
<path d="M444.35,203.35c0,4.73,3.06,8.56,6.84,8.56s6.85-3.83,6.85-8.56-3.07-8.56-6.85-8.56S444.35,198.62,444.35,203.35Z" fill="#e0e0e0"/>
<path d="M469.51,243.39c-.62,5-1.25,10.2-1.83,15.5-1.05,9.5-2,19.32-2.65,28.77-.58-.38-1.19-.8-1.83-1.25C438.89,269,460,227.93,460,227.93Z" opacity="0.2" style="isolation:isolate"/>
<path d="M480.81,230.13s-8.62,61-17.61,64-49,3.63-49,3.63a14,14,0,0,1-6.07,1.18c-3.6-.08-13.89-.5-16.38-2.53s-7.88-9.43-6.15-11.66,31-1.21,31.53.1,3.35,3.24,3.35,3.24,29.93-5.74,33-7,9.71-53.17,9.71-53.17Z" fill="#f9b499"/>
<path d="M473.82,198c-13.11-.77-16.49,53.12-16.49,53.12l25.32,3.32S493.78,199.13,473.82,198Z" fill="#0071f2" data-primary="true"/>
<path d="M473.82,198c-13.11-.77-16.49,53.12-16.49,53.12l25.32,3.32S493.78,199.13,473.82,198Z" fill="#0071f2" opacity="0.8" style="isolation:isolate" data-primary="true"/>
<path d="M328.1,281.41v4.41c0,1.32,2.27,2.25,3.57,2.25H434.5c1.32,0,3.43-.93,3.43-2.25v-4.41Z" fill="#007cff"/>
<path d="M328.1,281.41v4.41c0,1.32,2.27,2.25,3.57,2.25H434.5c1.32,0,3.43-.93,3.43-2.25v-4.41Z" fill="#ccc"/>
<path d="M328.1,281.41v4.41c0,1.32,2.27,2.25,3.57,2.25H399.5c1.31,0,3.48-.93,3.48-2.25v-4.41Z" opacity="0.2" style="isolation:isolate"/>
<path d="M311.61,227.35l12.24,55.71a4.34,4.34,0,0,0,4,3.34h66.87c1.78,0,2.93-1.9,2.52-3.72L385,227.56a3.83,3.83,0,0,0-4-2.73H314.13C312.34,224.83,311.21,225.54,311.61,227.35Z" fill="#ccc"/>
<path d="M350.94,263.06c-3.11,0-6.3-3.35-7.12-7.46s1.07-7.47,4.2-7.47a5,5,0,0,1,1.73.33c.73,3.21,2.91,5.91,5.3,6.81a2.34,2.34,0,0,1,.09.33C356,259.71,354.07,263.06,350.94,263.06Z" opacity="0.2" style="isolation:isolate"/>
<path d="M616.18,129.3a3.7,3.7,0,1,1-3.7-3.7A3.7,3.7,0,0,1,616.18,129.3Z" fill="#fff" opacity="0.6" style="isolation:isolate"/>
<path d="M623.66,129.3a2.37,2.37,0,1,1-2.36-2.37A2.37,2.37,0,0,1,623.66,129.3Z" fill="#fff" opacity="0.6" style="isolation:isolate"/>
</svg>